<?xml version="1.0" standalone="no"?>
<!DOCTYPE svg PUBLIC "-//W3C//DTD SVG 1.1//EN" "http://www.w3.org/Graphics/SVG/1.1/DTD/svg11.dtd" >
<svg xmlns="http://www.w3.org/2000/svg" xmlns:xlink="http://www.w3.org/1999/xlink" version="1.1">
<metadata>
Created by FontForge 20161116 at Sat Apr  1 18:39:57 2017
 By Jimmy Wärting
 The digitally encoded machine readable software for producing the
 Typefaces licensed to you is copyrighted (c) 1989, 1995 Adobe Systems.
 All Rights Reserved. This software is the property of Adobe Systems
 Incorporated and its licensors, and may not be reproduced, used, 
 displayed, modified, disclosed or transferred without the express 
 written approval of Adobe.
 
 The digitally encoded machine readable outline data for producing
 the Typefaces licensed to you is copyrighted (c) 1981, 1995 Linotype-Hell
 AG and/or its subsidiaries. All Rights Reserved.
 This data is the property of Linotype-Hell AG and/or its subsidiaries
 and may not be reproduced, used, displayed, modified, disclosed or 
 transferred without the express written approval of Linotype-Hell AG 
 and/or its subsidiaries. 
</metadata>
<defs>
<font id="Avenir-HeavyOblique" horiz-adv-x="260" >
  <font-face 
    font-family="Avenir"
    font-weight="800"
    font-style="oblique"
    font-stretch="normal"
    units-per-em="1000"
    panose-1="2 0 9 3 0 0 0 0 0 0"
    ascent="800"
    descent="-200"
    x-height="480"
    cap-height="708"
    bbox="-165.157 -250 1184.91 939"
    underline-thickness="50"
    underline-position="-100"
    stemh="102"
    stemv="120"
    unicode-range="U+0020-FB02"
  />
    <missing-glyph />
    <glyph glyph-name="space" unicode=" " horiz-adv-x="296" 
 />
    <glyph glyph-name="exclam" unicode="!" horiz-adv-x="296" 
d="M307.503 708l-68.3027 -486h-120l68.3027 486h120zM77.8379 70c6.04297 43 46.9619 78 90.9619 78c43 0 75.3623 -33 69.3193 -76s-46.9619 -78 -90.9619 -78c-42 0 -75.3623 33 -69.3193 76z" />
    <glyph glyph-name="quotedbl" unicode="&#x22;" horiz-adv-x="519" 
d="M182.4 444l37.1025 264h102l-37.1025 -264h-102zM359.4 444l37.1025 264h102l-37.1025 -264h-102z" />
    <glyph glyph-name="numbersign" unicode="#" horiz-adv-x="592" 
d="M107 0l59.373 209h-90l11.8057 84h101l35.1455 122h-90l11.8057 84h101l59.373 209h88l-59.373 -209h103l59.373 209h87l-59.373 -209h90l-11.8057 -84h-102l-34.1455 -122h90l-11.8057 -84h-100l-60.373 -209h-87l59.373 209h-104l-59.373 -209h-87zM414.324 415h-103
l-34.1455 -122h103z" />
    <glyph glyph-name="dollar" unicode="$" horiz-adv-x="592" 
d="M428.465 786l-9.27539 -66h9c68 0 141.627 -24 186.303 -69l-96.0703 -93c-26.3623 33 -68.4111 54 -114.411 54l-28.1074 -200l3.85938 -1c107.783 -30 215.724 -66 196.47 -203c-18.5518 -132 -130.951 -206 -259.778 -219l-10.1191 -72h-54l9.97852 71
c-87.1406 -1 -168.486 25 -220.492 89l104.07 93c25.6758 -45 77.3027 -69 131.601 -74l29.6543 211l-4.85938 1c-107.644 31 -200.741 73 -182.189 205c16.7246 119 131.405 195 244.951 206l9.41602 67h54zM324.011 427l25.7197 183c-48.125 -8 -95.6221 -40 -102.79 -91
c-8.57227 -61 32.0215 -71 77.0703 -92zM358.897 291l-27.4053 -195c56.5459 11 109.184 44 117.476 103s-45.3193 76 -90.0703 92z" />
    <glyph glyph-name="percent" unicode="%" horiz-adv-x="907" 
d="M529.454 174c14.4756 103 109.141 186 212.141 186s174.335 -83 159.859 -186s-109.141 -186 -212.141 -186s-174.335 83 -159.859 186zM805.454 174c7.02734 50 -27.3516 90 -77.3516 90s-95.6211 -40 -102.648 -90s27.3516 -90 77.3516 -90s95.6211 40 102.648 90z
M105.049 534c14.4756 103 109.141 186 212.141 186s174.335 -83 159.859 -186s-109.141 -186 -212.141 -186s-174.335 83 -159.859 186zM381.049 534c7.02734 50 -27.3516 90 -77.3516 90s-95.6211 -40 -102.648 -90s27.3516 -90 77.3516 -90s95.6211 40 102.648 90z
M205.843 6l519.157 734l77.6602 -38l-519.157 -734z" />
    <glyph glyph-name="ampersand" unicode="&#x26;" horiz-adv-x="741" 
d="M768.281 372l-170.811 -205l129.529 -167h-155l-63.6162 81c-66.416 -67 -132.913 -99 -222.913 -99c-125 0 -229.741 73 -210.768 208c13.3506 95 91.3291 166 180.968 199c-37.9736 50 -67.9297 93 -58.0918 163c16.3027 116 120.454 174 227.454 174
c106 0 192.691 -52 176.389 -168c-12.2275 -87 -91.6592 -147 -166.719 -183l96.7129 -123l95.8652 120h141zM411.854 618c-46 0 -89.0762 -29 -94.9785 -71c-5.2002 -37 25.5996 -74 52.5244 -103c44.0918 22 103.87 56 111.179 108c5.33984 38 -25.7246 66 -68.7246 66z
M444.486 160l-122.794 158c-50.9355 -28 -105.433 -60 -114.006 -121c-8.71387 -62 36.9619 -107 96.9619 -107c55 0 98.9189 35 139.838 70z" />
    <glyph glyph-name="quoteright" unicode="&#x2019;" horiz-adv-x="296" 
d="M114.4 444l107.103 264h122l-122.103 -264h-107z" />
    <glyph glyph-name="parenleft" unicode="(" horiz-adv-x="296" 
d="M296.876 732l77.6924 -52l-1.5625 -4c-95.6006 -111 -163.276 -251 -182.53 -388c-19.3945 -138 8.92969 -278 73.3301 -389l-91.7305 -55c-73.291 126 -106.508 281 -83.5996 444c22.7676 162 99.6924 318 208.4 444z" />
    <glyph glyph-name="parenright" unicode=")" horiz-adv-x="296" 
d="M80.0752 -156l-77.6914 52l1.5625 4c95.5996 111 163.275 251 182.529 388c19.3945 138 -9.07031 277 -73.4697 388l91.8701 56c73.292 -126 106.508 -281 83.5996 -444c-22.7676 -162 -99.6914 -318 -208.4 -444z" />
    <glyph glyph-name="asterisk" unicode="*" horiz-adv-x="463" 
d="M373.503 708l-19.957 -142l141.185 44l14.7559 -80l-142.184 -44l69.5566 -117l-76.0264 -50l-69.417 118l-100.162 -115l-59.832 51l101.881 113l-130.395 47l37.2432 80l129.395 -47l19.957 142h84z" />
    <glyph glyph-name="plus" unicode="+" horiz-adv-x="666" 
d="M111.752 354h220l30.9189 220h102l-30.9189 -220h220l-14.3359 -102h-220l-30.9189 -220h-102l30.9189 220h-220z" />
    <glyph glyph-name="comma" unicode="," horiz-adv-x="296" 
d="M20.292 -126l107.103 264h122l-122.103 -264h-107z" />
    <glyph glyph-name="hyphen" unicode="-" horiz-adv-x="315" 
d="M322.74 297l-14.335 -102h-247l14.335 102h247z" />
    <glyph glyph-name="period" unicode="." horiz-adv-x="296" 
d="M77.8379 70c6.04297 43 46.9619 78 90.9619 78c43 0 75.3623 -33 69.3193 -76s-46.9619 -78 -90.9619 -78c-42 0 -75.3623 33 -69.3193 76z" />
    <glyph glyph-name="slash" unicode="/" horiz-adv-x="389" 
d="M488.033 726l-420.779 -774l-78.7832 30l421.06 776z" />
    <glyph glyph-name="zero" unicode="0" horiz-adv-x="592" 
d="M89.752 354c47.0811 335 228.438 366 307.438 366s251.644 -31 204.562 -366c-47.082 -335 -228.438 -366 -307.438 -366s-251.644 31 -204.562 366zM209.752 354c-12.3682 -88 -19.417 -252 100.583 -252s159.049 164 171.417 252c12.3672 88 19.416 252 -100.584 252
s-159.049 -164 -171.416 -252z" />
    <glyph glyph-name="one" unicode="1" horiz-adv-x="592" 
d="M268 0l80.1084 570l-150.286 -123l-58.3359 83l239.017 178h109l-99.5029 -708h-120z" />
    <glyph glyph-name="two" unicode="2" horiz-adv-x="592" 
d="M59 0l17.8486 127l312.384 266c37.4971 32 82.9785 71 89.8652 120c8.15137 58 -34.9297 93 -89.9297 93c-59 0 -106.341 -38 -122.492 -96l-124.595 10c30.4111 131 135.108 200 263.108 200c127 0 219.865 -65 200.751 -201c-12.5078 -89 -67.0811 -150 -138.232 -208
l-247.529 -203h328l-15.1787 -108h-474z" />
    <glyph glyph-name="three" unicode="3" horiz-adv-x="592" 
d="M266.271 315l15.1787 108h31c69 0 139.405 10 151.491 96c7.58984 54 -28.9297 93 -87.9297 93c-48 0 -93.0752 -29 -116.962 -78l-122.222 34c45.7568 105 144.362 152 248.362 152c122 0 218.006 -64 200.438 -189c-10.6807 -76 -65.8164 -141 -143.486 -160
l-0.28125 -2c88.1729 -13 126.055 -85 113.827 -172c-18.9727 -135 -142.373 -209 -268.373 -209c-116 0 -205.254 48 -219.67 166l132.778 34c6.84863 -58 38.0703 -92 102.07 -92s125.324 45 134.6 111c12.9297 92 -68.8213 108 -141.821 108h-29z" />
    <glyph glyph-name="four" unicode="4" horiz-adv-x="592" 
d="M335 0l20.2383 144h-301l16.7236 119l347.541 445h136l-64.0869 -456h103l-15.1777 -108h-103l-20.2383 -144h-120zM370.416 252l40.1953 286h-2l-217.195 -286h179z" />
    <glyph glyph-name="five" unicode="5" horiz-adv-x="592" 
d="M604.503 708l-15.1787 -108h-285l-22.8154 -141c19.8428 6 52.2646 9 77.2646 9c139 0 223.07 -92 202.973 -235c-21.3623 -152 -145.433 -245 -290.433 -245c-112 0 -188.552 53 -206.232 162l130.778 34c8.83301 -51 43.4756 -82 104.476 -82
c72 0 130.309 52 140.006 121c13.9131 99 -58.7461 137 -146.746 137c-52 0 -107.827 -13 -152.778 -34l60.6865 382h403z" />
    <glyph glyph-name="six" unicode="6" horiz-adv-x="592" 
d="M390.503 708h146l-206.821 -262l1.71875 -2c15.124 8 43.6865 12 67.6865 12c125 0 198.524 -103 181.237 -226c-20.6592 -147 -141.011 -242 -286.011 -242c-148 0 -239.211 91 -218.13 241c10.4004 74 45.5518 132 93.2656 194zM202.465 231
c-9.97852 -71 39.8701 -129 110.87 -129s137.151 58 147.13 129s-39.8701 129 -110.87 129s-137.151 -58 -147.13 -129z" />
    <glyph glyph-name="seven" unicode="7" horiz-adv-x="592" 
d="M125.481 594l16.0215 114h481l-15.459 -110l-367.044 -598h-141l372.481 594h-346z" />
    <glyph glyph-name="eight" unicode="8" horiz-adv-x="592" 
d="M397.189 720c120 0 207.584 -67 190.859 -186c-10.54 -75 -55.3945 -138 -129.346 -159l-0.28125 -2c66.0322 -14 117.054 -85 104.827 -172c-19.6758 -140 -136.936 -213 -268.936 -213s-228.74 73 -209.064 213c12.2266 87 84.2051 158 153.173 172l0.28125 2
c-68.0488 21 -95.1943 84 -84.6543 159c16.7246 119 123.141 186 243.141 186zM382.854 618c-61 0 -103.043 -43 -110.492 -96c-7.87012 -56 24.0869 -99 83.0869 -99c53 0 103.043 43 110.913 99c7.44922 53 -28.5078 96 -83.5078 96zM341.957 327
c-65 0 -125.465 -46 -134.601 -111c-9.41602 -67 33.9785 -114 102.979 -114s125.605 47 135.021 114c9.13574 65 -38.3994 111 -103.399 111z" />
    <glyph glyph-name="nine" unicode="9" horiz-adv-x="592" 
d="M301 0h-146l206.821 262l-1.71875 2c-15.124 -8 -43.6865 -12 -67.6865 -12c-125 0 -198.524 103 -181.237 226c20.6592 147 141.011 242 286.011 242c148 0 239.211 -91 218.13 -241c-10.4004 -74 -45.5518 -132 -93.2656 -194zM489.038 477
c9.97852 71 -39.8701 129 -110.87 129s-137.151 -58 -147.13 -129s39.8701 -129 110.87 -129s137.151 58 147.13 129z" />
    <glyph glyph-name="colon" unicode=":" horiz-adv-x="296" 
d="M77.8379 70c6.04297 43 46.9619 78 90.9619 78c43 0 75.3623 -33 69.3193 -76s-46.9619 -78 -90.9619 -78c-42 0 -75.3623 33 -69.3193 76zM125.481 409c6.04297 43 46.9619 78 90.9619 78c43 0 75.3623 -33 69.3193 -76c-6.04395 -43 -46.9629 -78 -90.9629 -78
c-42 0 -75.3613 33 -69.3184 76z" />
    <glyph glyph-name="semicolon" unicode=";" horiz-adv-x="296" 
d="M20.292 -126l107.103 264h122l-122.103 -264h-107zM125.481 409c6.04297 43 46.9619 78 90.9619 78c43 0 75.3623 -33 69.3193 -76c-6.04395 -43 -46.9629 -78 -90.9629 -78c-42 0 -75.3613 33 -69.3184 76z" />
    <glyph glyph-name="less" unicode="&#x3c;" horiz-adv-x="666" 
d="M591.902 42l-474.378 225l10.1191 72l537.621 225l-15.459 -110l-359.222 -151l316.778 -151z" />
    <glyph glyph-name="equal" unicode="=" horiz-adv-x="666" 
d="M124.4 444h542l-14.335 -102h-542zM99.1025 264h542l-14.335 -102h-542z" />
    <glyph glyph-name="greater" unicode="&#x3e;" horiz-adv-x="666" 
d="M159.265 564l474.379 -225l-10.1191 -72l-537.622 -225l15.46 110l359.222 151l-316.778 151z" />
    <glyph glyph-name="question" unicode="?" horiz-adv-x="519" 
d="M359.373 209h-120l7.72949 55c8.43262 60 23.541 75 70.4434 117l87.9629 78c19.3887 17 30.6211 40 34.1348 65c7.30762 52 -25.6328 88 -77.6328 88c-56 0 -101.184 -44 -113.772 -98l-126.595 10c32.8486 127 134.39 202 261.39 202c119 0 201.302 -69 183.594 -195
c-12.2266 -87 -69.1299 -129 -134.859 -184c-41.9189 -35 -59.7461 -48 -67.0537 -100zM199.838 70c6.04297 43 46.9619 78 90.9619 78c43 0 75.3623 -33 69.3193 -76s-46.9619 -78 -90.9619 -78c-42 0 -75.3623 33 -69.3193 76z" />
    <glyph glyph-name="at" unicode="@" horiz-adv-x="800" 
d="M465.087 456c-67 0 -113.729 -55 -123.006 -121c-2.95117 -21 -12.9297 -92 70.0703 -92c76 0 106.275 66 114.006 121c7.44824 53 -11.0703 92 -61.0703 92zM635.692 133h110c-84.7734 -98 -206.222 -151 -328.222 -151c-213 0 -366.357 154 -335.859 371
c29.9346 213 223.422 373 434.422 373c176 0 337.557 -117 307.762 -329c-29.9355 -213 -196.292 -244 -256.292 -244c-56 0 -74.0654 28 -71.4111 54h-2c-29.7939 -27 -72.5889 -54 -135.589 -54c-86 0 -134.303 69 -120.39 168c16.4434 117 107.622 225 231.622 225
c53 0 85.751 -16 99.9893 -57h2l14.3242 45h94l-64.6865 -197c-6.66992 -19 -14.2002 -37 -17.0107 -57c-3.37305 -24 0.799805 -37 21.7998 -37c42 0 92.3242 45 106.94 149c22.4873 160 -74.708 244 -226.708 244c-166 0 -293.724 -119 -316.772 -283
c-24.5947 -175 85.5078 -281 254.508 -281c75 0 143.092 22 197.573 61z" />
    <glyph glyph-name="A" unicode="A" horiz-adv-x="722" 
d="M0 0l407.503 708h109l205.497 -708h-144l-43.2324 162h-307l-86.7676 -162h-141zM285.946 270h220l-68.5244 288z" />
    <glyph glyph-name="B" unicode="B" horiz-adv-x="648" 
d="M79 0l99.5029 708h276c107 0 210.113 -49 191.983 -178c-11.2432 -80 -68.6914 -133 -144.783 -155l-0.28125 -2c87.5947 -10 141.757 -80 128.968 -171c-21.6436 -154 -162.39 -202 -296.39 -202h-255zM289.324 600l-25.2969 -180h115c84 0 131.06 36 138.508 89
c8.57324 61 -29.2109 91 -124.211 91h-104zM248.849 312l-28.6699 -204h116c65 0 156.546 11 169.616 104c10.3994 74 -33.9463 100 -135.946 100h-121z" />
    <glyph glyph-name="C" unicode="C" horiz-adv-x="685" 
d="M749.292 614l-108.119 -72c-44.2695 55 -90.1621 70 -139.162 70c-146 0 -258.74 -112 -278.557 -253c-21.2217 -151 60.0381 -263 206.038 -263c57 0 115.654 26 171.086 86l93.6006 -74c-76.3682 -88 -177.708 -126 -281.708 -126c-218 0 -353.2 148 -322.141 369
c31.9023 227 208.703 375 426.703 375c96 0 173.643 -31 232.259 -112z" />
    <glyph glyph-name="D" unicode="D" horiz-adv-x="759" 
d="M79 0l99.5029 708h279c186 0 343.979 -114 310.249 -354c-34.0117 -242 -254.752 -354 -424.752 -354h-264zM221.021 114h94c158 0 296.557 68 320.73 240c24.1729 172 -78.2705 240 -232.271 240h-115z" />
    <glyph glyph-name="E" unicode="E" horiz-adv-x="611" 
d="M79 0l99.5029 708h469l-16.0215 -114h-343l-24.4541 -174h325l-16.0215 -114h-325l-26.9844 -192h361l-16.0215 -114h-487z" />
    <glyph glyph-name="F" unicode="F" horiz-adv-x="574" 
d="M79 0l99.5029 708h457l-16.0215 -114h-331l-26.1406 -186h312l-16.0215 -114h-312l-41.3193 -294h-126z" />
    <glyph glyph-name="G" unicode="G" horiz-adv-x="778" 
d="M766.184 414l-50.875 -362c-92.4658 -46 -193.838 -70 -302.838 -70c-218 0 -353.2 148 -322.141 369c31.9023 227 208.703 375 426.703 375c108 0 201.768 -23 266.491 -89l-106.211 -94c-38.8154 44 -104.303 69 -175.303 69c-146 0 -258.74 -112 -278.557 -253
c-21.2217 -151 60.0381 -263 206.038 -263c64 0 123.687 12 171.2 37l23.4697 167h-145l16.0215 114h271z" />
    <glyph glyph-name="H" unicode="H" horiz-adv-x="741" 
d="M79 0l99.5029 708h126l-39.6328 -282h331l39.6328 282h126l-99.5029 -708h-126l43.8486 312h-331l-43.8486 -312h-126z" />
    <glyph glyph-name="I" unicode="I" horiz-adv-x="278" 
d="M76 0l99.5029 708h126l-99.5029 -708h-126z" />
    <glyph glyph-name="J" unicode="J" horiz-adv-x="500" 
d="M525.503 708l-71.957 -512c-15.8809 -113 -101.075 -214 -243.075 -214c-111 0 -178.833 51 -185.092 163l121.935 28c1.53516 -46 29.1787 -77 73.1787 -77c72 0 100.308 52 112.254 137l66.7568 475h126z" />
    <glyph glyph-name="K" unicode="K" horiz-adv-x="685" 
d="M79 0l99.5029 708h126l-42.1621 -300h6l335.162 300h170l-376.957 -327l299.454 -381h-177l-258.092 348h-7l-48.9082 -348h-126z" />
    <glyph glyph-name="L" unicode="L" horiz-adv-x="519" 
d="M79 0l99.5029 708h126l-83.4814 -594h301l-16.0215 -114h-427z" />
    <glyph glyph-name="M" unicode="M" horiz-adv-x="926" 
d="M82 0l99.5029 708h192l119.292 -496l260.708 496h190l-99.5029 -708h-120l82.6377 588h-2l-297.638 -588h-88l-132.362 588h-2l-82.6377 -588h-120z" />
    <glyph glyph-name="N" unicode="N" horiz-adv-x="796" 
d="M79 0l99.5029 708h167l269.075 -526l1.71973 -2h-2l2.28027 2l73.9248 526h126l-99.5029 -708h-160l-273.687 543h-2l-76.3135 -543h-126z" />
    <glyph glyph-name="O" unicode="O" horiz-adv-x="833" 
d="M90.3301 351c31.9023 227 208.703 375 426.703 375c221.562 4 356.762 -144 324.858 -371c-31.0596 -221 -207.859 -369 -429.421 -373c-218 0 -353.2 148 -322.141 369zM223.454 359c-21.2217 -151 60.0381 -263 206.038 -263c147 0 259.74 112 280.962 263
c19.8164 141 -61.4434 253 -208.443 253c-146 0 -258.74 -112 -278.557 -253z" />
    <glyph glyph-name="P" unicode="P" horiz-adv-x="611" 
d="M79 0l99.5029 708h238c137 0 254.254 -48 232.189 -205c-25.0166 -178 -162.514 -210 -312.514 -210h-90l-41.1787 -293h-126zM261.357 401h76c72 0 165.562 4 179.054 100c12.2266 87 -69.0869 99 -137.087 99h-90z" />
    <glyph glyph-name="Q" unicode="Q" horiz-adv-x="852" 
d="M853.335 102l-14.335 -102h-412c-220 0 -366.465 139 -334.141 369c29.2324 208 220.174 357 422.174 357s351.059 -149 321.826 -357c-20.7998 -148 -112.762 -226 -186.243 -265l-0.28125 -2h203zM496.011 612c-137 0 -251.757 -105 -271.572 -246
c-20.3789 -145 65.583 -252 203.583 -252c140 0 256.038 107 276.417 252c19.8154 141 -65.4277 246 -208.428 246z" />
    <glyph glyph-name="R" unicode="R" horiz-adv-x="630" 
d="M79 0l99.5029 708h246c136 0 257.816 -44 235.471 -203c-14.3359 -102 -83.876 -177 -190.984 -192l144.011 -313h-152l-121.838 300h-92l-42.1621 -300h-126zM262.341 408h98c71 0 154.843 6 167.772 98c11.8057 84 -64.7891 94 -129.789 94h-109z" />
    <glyph glyph-name="S" unicode="S" horiz-adv-x="574" 
d="M609.773 653l-105.633 -97c-21.6592 38 -67.1299 56 -116.13 56c-58 0 -119.653 -26 -128.789 -91c-19.957 -142 327.427 -61 292.011 -313c-21.3623 -152 -151.762 -226 -290.762 -226c-88 0 -170.206 27 -218.509 96l107.93 92c24.3945 -47 73.6006 -74 129.601 -74
c58 0 128.497 32 137.632 97c21.7842 155 -326.724 66 -291.167 319c20.5186 146 160.076 214 291.076 214c74 0 145.048 -21 192.74 -73z" />
    <glyph glyph-name="T" unicode="T" horiz-adv-x="574" 
d="M224 0l83.4814 594h-217l16.0215 114h560l-16.0215 -114h-217l-83.4814 -594h-126z" />
    <glyph glyph-name="U" unicode="U" horiz-adv-x="722" 
d="M745.503 708l-62.9619 -448c-24.0332 -171 -162.07 -278 -324.07 -278s-269.963 107 -245.93 278l62.9619 448h126l-62.4004 -444c-9.83789 -70 15.2324 -162 136.232 -162s171.93 92 181.768 162l62.4004 444h126z" />
    <glyph glyph-name="V" unicode="V" horiz-adv-x="667" 
d="M275 0l-178.497 708h145l117.811 -535l274.189 535h136l-385.503 -708h-109z" />
    <glyph glyph-name="W" unicode="W" horiz-adv-x="981" 
d="M209 0l-109.497 708h138l61.3242 -510h2l230.676 510h124l84.3242 -510h2l210.676 510h128l-305.503 -708h-120l-88.248 539h-2l-239.752 -539h-116z" />
    <glyph glyph-name="X" unicode="X" horiz-adv-x="685" 
d="M0 0l304 370l-188.497 338h159l130.179 -262l201.821 262h153l-279.503 -338l205 -370h-160l-144.979 299l-228.021 -299h-152z" />
    <glyph glyph-name="Y" unicode="Y" horiz-adv-x="630" 
d="M252 0l42.584 303l-209.081 405h158l134.367 -282l215.633 282h150l-322.919 -405l-42.584 -303h-126z" />
    <glyph glyph-name="Z" unicode="Z" horiz-adv-x="611" 
d="M35 0l16.0215 114l445.46 480h-372l16.0215 114h529l-16.0215 -114l-448.46 -480h387l-16.0215 -114h-541z" />
    <glyph glyph-name="bracketleft" unicode="[" horiz-adv-x="278" 
d="M360.876 732l-10.9619 -78h-90l-102.876 -732h90l-10.9629 -78h-192l124.801 888h192z" />
    <glyph glyph-name="backslash" unicode="\" horiz-adv-x="389" 
d="M105.033 726l87.4971 32l202.94 -776l-87.2168 -30z" />
    <glyph glyph-name="bracketright" unicode="]" horiz-adv-x="278" 
d="M-1.9248 -156l10.9629 78h90l102.876 732h-90l10.9619 78h192l-124.801 -888h-192z" />
    <glyph glyph-name="asciicircum" unicode="^" horiz-adv-x="666" 
d="M235.205 343h-118l274.298 365h82l171.702 -365h-118l-113.41 239z" />
    <glyph glyph-name="underscore" unicode="_" horiz-adv-x="500" 
d="M482.433 -125h-500l7.02637 50h500z" />
    <glyph glyph-name="quoteleft" unicode="&#x2018;" horiz-adv-x="296" 
d="M343.503 708l-107.103 -264h-122l122.103 264h107z" />
    <glyph glyph-name="a" unicode="a" horiz-adv-x="537" 
d="M368 0l9.27539 66h-3c-41.5889 -54 -100.962 -78 -164.962 -78c-89 0 -168.113 49 -154.762 144c21.9238 156 205.47 167 325.47 167h30l1.82715 13c8.29199 59 -33.3516 90 -97.3516 90c-50 0 -98.8105 -20 -135.026 -50l-54.1465 63c60.5898 54 138.822 77 214.822 77
c205 0 184.199 -148 174.643 -216l-38.7891 -276h-108zM387.422 188l3.79492 27h-25c-66 0 -180.703 -5 -190.4 -74c-6.18359 -44 36.1455 -63 75.1455 -63c82 0 127.044 43 136.46 110z" />
    <glyph glyph-name="b" unicode="b" horiz-adv-x="630" 
d="M68 0l106.249 756h120l-47.3623 -337h3c29.3564 31 83.2598 73 173.26 73c137 0 216.54 -110 196.583 -252c-19.9561 -142 -124.416 -252 -272.416 -252c-67 0 -126.346 26 -153.194 84h-2l-10.1191 -72h-114zM499.729 240c10.541 75 -32.7617 144 -120.762 144
s-150.697 -69 -161.238 -144c-10.54 -75 32.7627 -144 120.763 -144s150.697 69 161.237 144z" />
    <glyph glyph-name="c" unicode="c" horiz-adv-x="482" 
d="M537.887 419l-94.665 -83c-23.9238 29 -52.2539 48 -84.2539 48c-88 0 -150.697 -69 -161.238 -144c-10.54 -75 32.7627 -144 120.763 -144c37 0 73.248 16 99.3242 45l67.9131 -86c-55.8867 -49 -140.416 -67 -182.416 -67c-145 0 -246.806 101 -225.584 252
s151.417 252 296.417 252c61 0 124.908 -22 163.74 -73z" />
    <glyph glyph-name="d" unicode="d" horiz-adv-x="630" 
d="M448 0l10.1191 72h-2c-43.1514 -58 -109.806 -84 -176.806 -84c-148 0 -221.54 110 -201.584 252c19.957 142 130.417 252 267.417 252c90 0 132.097 -42 152.74 -73h3l47.3623 337h120l-106.249 -756h-114zM197.729 240c-10.54 -75 32.7627 -144 120.763 -144
s150.697 69 161.237 144c10.541 75 -32.7617 144 -120.762 144s-150.697 -69 -161.238 -144z" />
    <glyph glyph-name="e" unicode="e" horiz-adv-x="574" 
d="M557.827 198h-366c-1.97852 -71 45.9785 -114 112.979 -114c60 0 102.935 28 138.135 65l76.8652 -65c-65.6973 -69 -140.492 -96 -216.492 -96c-145 0 -246.806 101 -225.584 252s151.417 252 296.417 252c134 0 211.789 -94 188.318 -261zM204.476 288h246
c8.83789 70 -30.9785 114 -105.979 114c-71 0 -121.324 -45 -140.021 -114z" />
    <glyph glyph-name="f" unicode="f" horiz-adv-x="352" 
d="M111 0l53.124 378h-99l14.3359 102h99l9.55664 68c18.6914 133 60.9189 220 209.919 220c26 0 50.7188 -2 75.0166 -7l-22.3359 -102c-16.4375 4 -32.0156 7 -49.0156 7c-67 0 -83.4648 -46 -90.9141 -99l-12.2266 -87h111l-14.3359 -102h-111l-53.124 -378h-120z" />
    <glyph glyph-name="g" unicode="g" horiz-adv-x="630" 
d="M515.46 480h114l-61.417 -437c-24.3135 -173 -123.772 -283 -310.772 -283c-89 0 -167.33 19 -226.897 79l85.7725 98c41.8164 -44 88.3027 -69 155.303 -69c116 0 161.276 66 174.628 161l4.91797 35h-2c-41.6045 -47 -106.837 -70 -166.837 -70
c-144 0 -223.541 110 -204.428 246c19.957 142 124.417 252 272.417 252c67 0 126.346 -26 153.194 -84h2zM359.968 384c-84 0 -150.151 -58 -162.098 -143c-10.6807 -76 40.4648 -139 121.465 -139c89 0 151.573 61 162.816 141c11.665 83 -35.1836 141 -122.184 141z" />
    <glyph glyph-name="h" unicode="h" horiz-adv-x="574" 
d="M294.249 756l-48.2061 -343h2c24.6221 40 78.1035 79 152.104 79c129 0 162.211 -91 148.438 -189l-42.584 -303h-120l34.1514 243c7.44922 53 15.8164 141 -68.1836 141c-79 0 -118.151 -58 -127.146 -122l-36.8213 -262h-120l106.249 756h120z" />
    <glyph glyph-name="i" unicode="i" 
d="M70 0l67.46 480h120l-67.46 -480h-120zM143.368 643c5.33984 38 42.1182 72 86.1182 72s73.6436 -31 67.8818 -72c-5.7627 -41 -44.1191 -72 -88.1191 -72s-71.2217 34 -65.8809 72z" />
    <glyph glyph-name="j" unicode="j" 
d="M137.46 480h120l-71.5361 -509c-16.8643 -120 -54.6533 -211 -191.653 -211c-22 0 -43.7197 2 -63.7354 9l23.6162 104c12.5781 -3 24.2969 -5 37.2969 -5c60 0 68.1514 58 74.3359 102zM143.368 643c5.33984 38 42.1182 72 86.1182 72s73.6436 -31 67.8818 -72
c-5.7627 -41 -44.1191 -72 -88.1191 -72s-71.2217 34 -65.8809 72z" />
    <glyph glyph-name="k" unicode="k" horiz-adv-x="537" 
d="M68 0l106.249 756h120l-66.7568 -475l212.968 199h154l-236.639 -218l182.179 -262h-159l-156.567 245h-2l-34.4326 -245h-120z" />
    <glyph glyph-name="l" unicode="l" 
d="M70 0l106.249 756h120l-106.249 -756h-120z" />
    <glyph glyph-name="m" unicode="m" horiz-adv-x="870" 
d="M63 0l67.46 480h114l-10.541 -75h2c27.3242 45 79.2275 87 159.228 87c74 0 120.924 -29 137.491 -89c43.5732 61 98.5088 89 170.509 89c128 0 160.211 -91 144.048 -206l-40.1943 -286h-120l38.2275 272c8.43164 60 -2.25977 112 -73.2598 112
c-75 0 -111.714 -62 -120.427 -124l-36.541 -260h-120l40.1943 286c8.29199 59 -10.2266 98 -68.2266 98c-79 0 -118.151 -58 -127.146 -122l-36.8213 -262h-120z" />
    <glyph glyph-name="n" unicode="n" horiz-adv-x="574" 
d="M68 0l67.46 480h114l-10.8223 -77h2c28.7461 48 79.5088 89 159.509 89c129 0 162.211 -91 148.438 -189l-42.584 -303h-120l34.1514 243c7.44922 53 15.8164 141 -68.1836 141c-79 0 -118.151 -58 -127.146 -122l-36.8213 -262h-120z" />
    <glyph glyph-name="o" unicode="o" horiz-adv-x="610" 
d="M77.7295 240c21.2217 151 151.417 252 296.417 252s246.805 -101 225.583 -252s-151.416 -252 -296.416 -252s-246.806 101 -225.584 252zM197.729 240c-10.54 -75 32.7627 -144 120.763 -144s150.697 69 161.237 144c10.541 75 -32.7617 144 -120.762 144
s-150.697 -69 -161.238 -144z" />
    <glyph glyph-name="p" unicode="p" horiz-adv-x="630" 
d="M35.957 -228l99.5029 708h114l-10.1191 -72h2c43.1514 58 109.806 84 176.806 84c148 0 221.54 -110 201.583 -252c-19.9561 -142 -130.416 -252 -267.416 -252c-90 0 -132.098 42 -152.74 73h-3l-40.6162 -289h-120zM499.729 240c10.541 75 -32.7617 144 -120.762 144
s-150.697 -69 -161.238 -144c-10.54 -75 32.7627 -144 120.763 -144s150.697 69 161.237 144z" />
    <glyph glyph-name="q" unicode="q" horiz-adv-x="630" 
d="M629.46 480l-99.5029 -708h-120l40.6162 289h-3c-29.3574 -31 -83.2598 -73 -173.26 -73c-137 0 -216.54 110 -196.584 252c19.957 142 124.417 252 272.417 252c67 0 126.346 -26 153.194 -84h2l10.1191 72h114zM197.729 240c-10.54 -75 32.7627 -144 120.763 -144
s150.697 69 161.237 144c10.541 75 -32.7617 144 -120.762 144s-150.697 -69 -161.238 -144z" />
    <glyph glyph-name="r" unicode="r" horiz-adv-x="389" 
d="M68 0l67.46 480h120l-10.6816 -76h2c33.7305 55 91.3682 88 154.368 88c15 0 28.5781 -3 42.0156 -7l-16.3027 -116c-19.2969 5 -37.7354 9 -56.7354 9c-113 0 -142.351 -95 -146.005 -121l-36.1191 -257h-120z" />
    <glyph glyph-name="s" unicode="s" horiz-adv-x="444" 
d="M462.887 419l-90.1191 -72c-18.5029 32 -46.1133 49 -87.1133 49c-32 0 -72.1084 -15 -77.168 -51c-12.0859 -86 256.752 -16 230.471 -203c-16.0215 -114 -130.644 -154 -228.644 -154c-74 0 -135.33 19 -176.6 74l90.54 75c26.2217 -34 54.708 -59 105.708 -59
c35 0 82.3896 17 87.7305 55c13.9131 99 -256.049 21 -230.33 204c15.0381 107 117.784 155 214.784 155c64 0 129.188 -20 160.74 -73z" />
    <glyph glyph-name="t" unicode="t" horiz-adv-x="389" 
d="M164.124 378h-99l14.3359 102h99l19.5352 139h120l-19.5352 -139h132l-14.3359 -102h-132l-29.5127 -210c-6.74609 -48 3.03711 -78 56.0371 -78c21 0 50.5625 4 67.1084 15l-14.1943 -101c-26.6865 -12 -69.249 -16 -97.249 -16c-127 0 -148.989 57 -133.108 170z" />
    <glyph glyph-name="u" unicode="u" horiz-adv-x="574" 
d="M573.46 480l-67.46 -480h-114l10.8213 77h-2c-28.7451 -48 -79.5078 -89 -159.508 -89c-129 0 -162.211 91 -148.438 189l42.584 303h120l-34.1514 -243c-7.44922 -53 -15.8164 -141 68.1836 -141c79 0 118.151 58 127.146 122l36.8223 262h120z" />
    <glyph glyph-name="v" unicode="v" horiz-adv-x="519" 
d="M199 0l-128.54 480h131l80.7783 -336h2l176.222 336h123l-256.46 -480h-128z" />
    <glyph glyph-name="w" unicode="w" horiz-adv-x="796" 
d="M170 0l-99.54 480h130l56.7783 -336h2l144.222 336h130l56.7783 -336h2l147.222 336h121l-230.46 -480h-119l-67.9023 328h-2l-147.098 -328h-124z" />
    <glyph glyph-name="x" unicode="x" horiz-adv-x="537" 
d="M-1 0l229.26 258l-134.8 222h146l75.7617 -144l124.238 144h137l-195.2 -222l156.74 -258h-146l-100.827 172l-150.173 -172h-142z" />
    <glyph glyph-name="y" unicode="y" horiz-adv-x="519" 
d="M207.438 -4l-136.978 484h132l87.1992 -333h2l166.801 333h125l-308.936 -583c-47.6484 -90 -96.2539 -137 -202.254 -137c-31 0 -61.4385 4 -90.3135 12l30.1777 108c18.0166 -7 38.3135 -12 59.3135 -12c59 0 77.9521 21 104.979 71z" />
    <glyph glyph-name="z" unicode="z" horiz-adv-x="482" 
d="M34 0l15.5996 111l295.087 271l0.28125 2h-245l13.4922 96h390l-15.3193 -109l-298.648 -275h272l-13.4922 -96h-414z" />
    <glyph glyph-name="braceleft" unicode="{" horiz-adv-x="278" 
d="M34.292 244l12.3672 88c28 0 95.8271 13 103.838 70l27.8271 198c12.6494 90 103.552 132 146.552 132h91l-11.8057 -84h-55c-57 0 -67.7617 -41 -71.8379 -70l-26.4219 -188c-11.9619 -78 -79.6318 -97 -112.194 -101l-0.28125 -2c31.5791 -3 95.0332 -14 82.9629 -107
l-25.5791 -182c-4.0752 -29 -4.83789 -70 52.1621 -70h55l-11.8057 -84h-91c-43 0 -122.097 42 -109.448 132l26.8438 191c8.85352 63 -55.1787 77 -83.1787 77z" />
    <glyph glyph-name="bar" unicode="|" horiz-adv-x="222" 
d="M165.405 750h102l-140.54 -1000h-102z" />
    <glyph glyph-name="braceright" unicode="}" horiz-adv-x="278" 
d="M324.659 332l-12.3672 -88c-28 0 -95.8271 -13 -103.838 -70l-27.8271 -198c-12.6484 -90 -103.552 -132 -146.552 -132h-91l11.8057 84h55c57 0 67.7627 41 71.8379 70l26.4219 188c11.9619 78 79.6328 97 112.194 101l0.28125 2c-31.5781 3 -95.0322 14 -82.9619 107
l25.5781 182c4.07617 29 4.83789 70 -52.1621 70h-55l11.8057 84h91c43 0 122.098 -42 109.448 -132l-26.8428 -191c-8.85449 -63 55.1777 -77 83.1777 -77z" />
    <glyph glyph-name="asciitilde" unicode="~" horiz-adv-x="666" 
d="M583.108 385l24.1943 -84c-35.9023 -42 -75.0859 -86 -137.086 -86c-37 0 -66.8926 15 -97.3623 33c-29.4707 18 -64.0811 35 -110.081 35s-75.2002 -37 -95.5566 -68l-24.1953 84c27.9033 42 70.0869 86 134.087 86c39 0 75.8916 -15 111.503 -32
c34.751 -16 69.9404 -36 95.9404 -36c41 0 71.2002 37 98.5566 68z" />
    <glyph glyph-name="exclamdown" unicode="&#xa1;" horiz-adv-x="296" 
d="M56.7998 -222l68.4434 487h120l-68.4434 -487h-120zM286.465 416c-6.04297 -43 -46.9619 -78 -90.9619 -78c-43 0 -75.3623 33 -69.3193 76c6.04395 43 46.9629 78 90.9629 78c42 0 75.3623 -33 69.3184 -76z" />
    <glyph glyph-name="cent" unicode="&#xa2;" horiz-adv-x="592" 
d="M432.562 559l-9.41602 -67c62.7188 -2 126.188 -20 160.303 -69l-87.9629 -78c-21.3457 26 -50.9561 43 -86.6758 45l-42.1621 -300c37 0 75.6709 19 103.465 46l61.8975 -79c-49.6055 -47 -117.416 -67 -179.697 -69l-10.1191 -72h-54l10.1191 72
c-135.313 12 -205.416 118 -186.443 253c19.5352 139 117.746 233 257.276 251l9.41602 67h54zM312.648 90l42.0225 299c-76.1084 -15 -118.682 -76 -128.941 -149c-9.83789 -70 18.4492 -132 86.9189 -150z" />
    <glyph glyph-name="sterling" unicode="&#xa3;" horiz-adv-x="592" 
d="M66 0l13.4922 96h102l30.7783 219h-102l11.8057 84h102l14.0537 100c13.9141 99 98.0596 221 263.06 221c71 0 139.189 -20 182.006 -64l-93.2275 -87c-25.2051 27 -57.957 43 -99.957 43c-74 0 -124.432 -60 -133.286 -123l-12.6484 -90h162l-11.8057 -84h-162
l-30.7783 -219h253l-13.4922 -96h-475z" />
    <glyph glyph-name="fraction" unicode="&#x2044;" horiz-adv-x="167" 
d="M-165.157 6l519.157 734l77.6602 -38l-519.157 -734z" />
    <glyph glyph-name="yen" unicode="&#xa5;" horiz-adv-x="592" 
d="M236 0l24.876 177h-170l10.9619 78h170l6.74609 48l-14.2217 34h-151l10.9619 78h108l-120.821 293h135l113.681 -294l190.319 294h129l-203.179 -293h108l-10.9619 -78h-151l-23.7783 -34l-6.74609 -48h170l-10.9619 -78h-170l-24.876 -177h-120z" />
    <glyph glyph-name="florin" unicode="&#x192;" horiz-adv-x="592" 
d="M539.87 426l-12.6484 -90h-138l-97.4756 -288c-42.8486 -127 -109.281 -187 -213.281 -187c-35 0 -69.876 8 -98.627 24l57.9297 92c11.7354 -9 29.0322 -14 45.0322 -14c52 0 74.1836 44 94.6162 104l90.8057 269h-113l12.6484 90h131l37.6006 111
c34.0537 100 88.7188 183 205.719 183c43 0 78.4541 -11 112.644 -31l-59.0703 -93c-15.5947 10 -33.752 16 -52.752 16c-59 0 -78.7295 -55 -95.335 -102l-29.8057 -84h122z" />
    <glyph glyph-name="section" unicode="&#xa7;" horiz-adv-x="593" 
d="M590.838 625l-113.292 -59c-8.37793 40 -44.0049 64 -86.0049 64c-40 0 -83.8105 -20 -90.2764 -66c-15.5996 -111 286.79 -94 260.087 -284c-7.72949 -55 -50.7568 -105 -102.989 -128c34.9238 -29 51.0215 -71 44.2754 -119c-17.0049 -121 -142.876 -177 -247.876 -177
c-95 0 -176.643 31 -204.713 123l114.308 52c6.97363 -50 54.7412 -73 103.741 -73c41 0 94.248 16 101.135 65c15.46 110 -287.352 90 -261.211 276c10.2598 73 55.4434 117 116.801 148c-37.3467 26 -57.0059 64 -49.9785 114c15.5996 111 128.189 165 227.189 165
c78 0 161.346 -26 188.805 -101zM298.589 239l90.6758 -45c25.8271 13 52.0439 43 55.8379 70c7.02734 50 -34.583 67 -68.6318 88l-83.0977 42c-34.1084 -15 -62.3564 -31 -67.8379 -70c-6.88672 -49 37.4434 -68 73.0537 -85z" />
    <glyph glyph-name="currency" unicode="&#xa4;" horiz-adv-x="592" 
d="M109.352 95l-51.5674 60l55.8857 49c-25.0967 42 -35.7891 94 -27.7783 151c7.87109 56 33.1787 108 70.2217 151l-42.1133 49l68.292 59l42.2539 -48c46.2168 30 100.746 48 157.746 48s106.471 -18 144.254 -48l55.7461 48l51.708 -59l-55.8867 -49
c25.8164 -44 35.6494 -95 27.7783 -151c-7.87012 -56 -33.1777 -108 -70.2217 -151l42.1143 -49l-68.4326 -60l-42.1133 49c-46.3574 -31 -100.887 -49 -157.887 -49c-56 0 -104.611 17 -144.113 49zM199.892 355c-12.9297 -92 35.6387 -152 124.639 -152
s154.432 60 167.361 152c12.9307 92 -35.7783 151 -124.778 151s-154.291 -59 -167.222 -151z" />
    <glyph glyph-name="quotesingle" unicode="'" horiz-adv-x="296" 
d="M159.4 444l37.1025 264h102l-37.1025 -264h-102z" />
    <glyph glyph-name="quotedblleft" unicode="&#x201c;" horiz-adv-x="519" 
d="M349.503 708l-107.103 -264h-122l122.103 264h107zM560.503 708l-107.103 -264h-122l122.103 264h107z" />
    <glyph glyph-name="guillemotleft" unicode="&#xab;" horiz-adv-x="519" 
d="M316.168 421l-139.313 -173l91.4053 -175l-83.168 -51l-120.237 226l183.48 224zM539.168 421l-139.313 -173l91.4053 -175l-83.168 -51l-120.237 226l183.48 224z" />
    <glyph glyph-name="guilsinglleft" unicode="&#x2039;" horiz-adv-x="296" 
d="M316.168 421l-139.313 -173l91.4053 -175l-83.168 -51l-120.237 226l183.48 224z" />
    <glyph glyph-name="guilsinglright" unicode="&#x203a;" horiz-adv-x="296" 
d="M49.2598 73l139.313 173l-91.4053 175l83.167 51l120.238 -226l-183.481 -224z" />
    <glyph glyph-name="fi" unicode="&#xfb01;" horiz-adv-x="593" 
d="M111 0l53.124 378h-99l14.3359 102h99l9.55664 68c18.6914 133 60.9189 220 209.919 220c26 0 50.7188 -2 75.0166 -7l-22.3359 -102c-16.4375 4 -32.0156 7 -49.0156 7c-67 0 -83.4648 -46 -90.9141 -99l-12.2266 -87h111l-14.3359 -102h-111l-53.124 -378h-120zM420 0
l67.46 480h120l-67.46 -480h-120zM494.368 643c5.33984 38 42.1182 72 86.1182 72s73.6436 -31 67.8818 -72c-5.7627 -41 -44.1191 -72 -88.1191 -72s-71.2217 34 -65.8809 72z" />
    <glyph glyph-name="fl" unicode="&#xfb02;" horiz-adv-x="593" 
d="M111 0l53.124 378h-99l14.3359 102h99l9.55664 68c18.6914 133 60.9189 220 209.919 220c26 0 50.7188 -2 75.0166 -7l-22.3359 -102c-16.4375 4 -32.0156 7 -49.0156 7c-67 0 -83.4648 -46 -90.9141 -99l-12.2266 -87h111l-14.3359 -102h-111l-53.124 -378h-120zM420 0
l106.249 756h120l-106.249 -756h-120z" />
    <glyph glyph-name="endash" unicode="&#x2013;" horiz-adv-x="500" 
d="M541.319 294l-13.4922 -96h-500l13.4922 96h500z" />
    <glyph glyph-name="dagger" unicode="&#x2020;" horiz-adv-x="593" 
d="M452.503 708l-28.5293 -203h199l-13.4922 -96h-199l-75.1895 -535h-114l75.1895 535h-198l13.4922 96h198l28.5293 203h114z" />
    <glyph glyph-name="daggerdbl" unicode="&#x2021;" horiz-adv-x="593" 
d="M452.503 708l-26 -185h193l-13.4922 -96h-193l-38.0859 -271h193l-13.4922 -96h-193l-26.1406 -186h-114l26.1406 186h-192l13.4922 96h192l38.0859 271h-192l13.4922 96h192l26 185h114z" />
    <glyph glyph-name="periodcentered" unicode="&#xb7;" horiz-adv-x="296" 
d="M108.897 291c6.04297 43 46.9619 78 90.9619 78c43 0 75.3623 -33 69.3193 -76c-6.04395 -43 -46.9619 -78 -90.9619 -78c-42 0 -75.3623 33 -69.3193 76z" />
    <glyph glyph-name="paragraph" unicode="&#xb6;" horiz-adv-x="600" 
d="M228.292 -126l65.2109 464c-130 0 -204.179 77 -189.422 182c18.833 134 120.422 188 259.422 188h269l-117.211 -834h-90l107.092 762h-107l-107.092 -762h-90z" />
    <glyph glyph-name="bullet" unicode="&#x2022;" horiz-adv-x="500" 
d="M122.752 354c13.7725 98 103.875 177 201.875 177s165.897 -79 152.125 -177c-13.7734 -98 -103.876 -177 -201.876 -177s-165.897 79 -152.124 177z" />
    <glyph glyph-name="quotesinglbase" unicode="&#x201a;" horiz-adv-x="296" 
d="M34.292 -126l107.103 264h122l-122.103 -264h-107z" />
    <glyph glyph-name="quotedblbase" unicode="&#x201e;" horiz-adv-x="519" 
d="M250.292 -126l107.103 264h122l-122.103 -264h-107zM41.292 -126l107.103 264h122l-122.103 -264h-107z" />
    <glyph glyph-name="quotedblright" unicode="&#x201d;" horiz-adv-x="519" 
d="M331.4 444l107.103 264h122l-122.103 -264h-107zM120.4 444l107.103 264h122l-122.103 -264h-107z" />
    <glyph glyph-name="guillemotright" unicode="&#xbb;" horiz-adv-x="519" 
d="M272.26 73l139.313 173l-91.4053 175l83.167 51l120.238 -226l-183.481 -224zM49.2598 73l139.313 173l-91.4053 175l83.167 51l120.238 -226l-183.481 -224z" />
    <glyph glyph-name="ellipsis" unicode="&#x2026;" horiz-adv-x="1000" 
d="M96.8379 70c6.04297 43 46.9619 78 90.9619 78c43 0 75.3623 -33 69.3193 -76s-46.9619 -78 -90.9619 -78c-42 0 -75.3623 33 -69.3193 76zM429.838 70c6.04297 43 46.9619 78 90.9619 78c43 0 75.3623 -33 69.3193 -76s-46.9619 -78 -90.9619 -78
c-42 0 -75.3623 33 -69.3193 76zM762.838 70c6.04297 43 46.9619 78 90.9619 78c43 0 75.3623 -33 69.3193 -76s-46.9619 -78 -90.9619 -78c-42 0 -75.3623 33 -69.3193 76z" />
    <glyph glyph-name="perthousand" unicode="&#x2030;" horiz-adv-x="1167" 
d="M434.189 165c13.6318 97 103.735 176 200.735 176s165.896 -79 152.265 -176c-13.6328 -97 -104.876 -177 -201.876 -177s-164.757 80 -151.124 177zM830.189 165c13.6318 97 103.735 176 200.735 176s165.896 -79 152.265 -176
c-13.6328 -97 -104.876 -177 -201.876 -177s-164.757 80 -151.124 177zM83.4541 544c13.6328 97 103.735 176 200.735 176s165.897 -79 152.265 -176c-13.6318 -97 -104.876 -177 -201.876 -177s-164.756 80 -151.124 177zM173.454 544
c-7.02637 -50 23.7734 -87 73.7734 -87s92.2002 37 99.2266 87c7.02734 50 -24.9131 86 -74.9131 86s-91.0596 -36 -98.0869 -86zM524.189 165c-7.02734 -50 23.7725 -87 73.7725 -87s92.2002 37 99.2275 87s-24.9141 86 -74.9141 86s-91.0586 -36 -98.0859 -86z
M920.189 165c-7.02734 -50 23.7725 -87 73.7725 -87s92.2002 37 99.2275 87s-24.9141 86 -74.9141 86s-91.0586 -36 -98.0859 -86zM134.843 6l519.157 734l77.6602 -38l-519.157 -734z" />
    <glyph glyph-name="questiondown" unicode="&#xbf;" horiz-adv-x="519" 
d="M227.93 277h120l-7.72949 -55c-8.43262 -60 -23.541 -75 -70.4434 -117l-87.9619 -78c-19.3896 -17 -30.6221 -40 -34.1357 -65c-7.30762 -52 25.6328 -88 77.6328 -88c56 0 101.184 44 113.772 98l126.595 -10c-32.8486 -127 -134.389 -202 -261.389 -202
c-119 0 -201.303 69 -183.595 195c12.2266 87 69.1299 129 134.859 184c41.9189 35 59.7461 48 67.0537 100zM387.465 416c-6.04297 -43 -46.9619 -78 -90.9619 -78c-43 0 -75.3623 33 -69.3193 76c6.04395 43 46.9629 78 90.9629 78c42 0 75.3623 -33 69.3184 -76z" />
    <glyph glyph-name="grave" unicode="`" 
d="M177.503 708l78.7617 -144h-94l-120.762 144h136z" />
    <glyph glyph-name="acute" unicode="&#xb4;" 
d="M162.265 564l119.238 144h136l-161.238 -144h-94z" />
    <glyph glyph-name="circumflex" unicode="&#x2c6;" 
d="M391.265 564h-114l-56.3506 90l-81.6494 -90h-112l135.238 144h135z" />
    <glyph glyph-name="tilde" unicode="&#x2dc;" 
d="M91.8271 568h-66c19.9951 64 54.8486 127 129.849 127c54 0 106.8 -37 138.8 -37c27 0 41.8115 20 51.9033 42h66c-19.9951 -64 -54.8486 -127 -129.849 -127c-54 0 -106.66 38 -138.66 38c-27 0 -41.9512 -21 -52.043 -43z" />
    <glyph glyph-name="macron" unicode="&#xaf;" 
d="M384.584 673l-10.9619 -78h-320l10.9619 78h320z" />
    <glyph glyph-name="breve" unicode="&#x2d8;" 
d="M59.5029 708h67c1.97266 -50 42.7246 -66 93.7246 -66c57 0 91.4053 10 113.275 66h66c-23.7725 -98 -96.2383 -144 -191.238 -144s-156.815 44 -148.762 144z" />
    <glyph glyph-name="dotaccent" unicode="&#x2d9;" 
d="M142.384 636c5.34082 38 42.1191 72 86.1191 72s73.6436 -31 67.8809 -72c-5.76172 -41 -44.1191 -72 -88.1191 -72s-71.2207 34 -65.8809 72z" />
    <glyph glyph-name="dieresis" unicode="&#xa8;" 
d="M39.3838 636c5.34082 38 42.1191 72 86.1191 72s73.6436 -31 67.8809 -72c-5.76172 -41 -44.1191 -72 -88.1191 -72s-71.2207 34 -65.8809 72zM245.384 636c5.34082 38 42.1191 72 86.1191 72s73.6436 -31 67.8809 -72c-5.76172 -41 -44.1191 -72 -88.1191 -72
s-71.2207 34 -65.8809 72z" />
    <glyph glyph-name="ring" unicode="&#x2da;" 
d="M327.055 655c-8.29199 -59 -60.3359 -102 -119.336 -102s-98.9561 43 -90.8047 101c8.29199 59 59.4756 103 119.476 103c59 0 98.957 -43 90.665 -102zM279.055 655c4.35645 31 -19.4111 54 -49.4111 54s-60.2324 -23 -64.5889 -54
c-4.35742 -31 19.4102 -54 49.4102 -54s60.0918 22 64.5898 54z" />
    <glyph glyph-name="cedilla" unicode="&#xb8;" 
d="M219 0l-50.4326 -60c59 0 120.157 -6 109.335 -83c-10.2588 -73 -92.6318 -97 -152.632 -97c-37 0 -72.5947 10 -102.065 28l28.4648 46c23.1729 -13 50.1895 -20 79.1895 -20c22 0 58.2646 9 62.9023 42c3.6543 26 -24.9404 36 -45.9404 36
c-13 0 -25.4209 -3 -37.9834 -7l-23.4863 25l74.6484 90h58z" />
    <glyph glyph-name="hungarumlaut" unicode="&#x2dd;" 
d="M59.2646 564l119.238 144h136l-161.238 -144h-94zM264.265 564l119.238 144h136l-161.238 -144h-94z" />
    <glyph glyph-name="ogonek" unicode="&#x2db;" 
d="M156.341 -147l18.1133 -49c-31.0918 -22 -68.3408 -38 -105.341 -38c-53 0 -98.6436 31 -90.4922 89c8.01172 57 73.584 118 121.222 151h61c-34.7939 -27 -94.8047 -84 -100.989 -128c-3.5127 -25 14.5352 -46 39.5352 -46c19 0 41.2656 9 56.9521 21z" />
    <glyph glyph-name="caron" unicode="&#x2c7;" 
d="M48.5029 708h114l56.3516 -90l81.6484 90h110l-135.238 -144h-133z" />
    <glyph glyph-name="emdash" unicode="&#x2014;" horiz-adv-x="1000" 
d="M1041.32 294l-13.4922 -96h-1000l13.4922 96h1000z" />
    <glyph glyph-name="AE" unicode="&#xc6;" horiz-adv-x="1000" 
d="M529 0l26.1406 186h-268l-140.141 -186h-153l552.503 708h496l-16.0215 -114h-288l-24.4541 -174h270l-16.0215 -114h-270l-26.9844 -192h300l-16.0215 -114h-426zM368.319 294h202l42.1621 300h-15z" />
    <glyph glyph-name="ordfeminine" unicode="&#xaa;" horiz-adv-x="349" 
d="M303.573 431l5.48145 39h-2c-24.6387 -33 -71.3252 -45 -109.325 -45c-34 0 -107.892 15 -97.6318 88c13.2109 94 133.054 100 212.054 100h17l1.125 8c3.23242 23 -25.3623 33 -64.3623 33c-33 0 -60.6865 -12 -87.498 -32l-35.5508 53
c39.3564 31 91.3242 45 144.324 45c96 0 129.519 -39 118.135 -120l-23.751 -169h-78zM316.719 553h-28c-33 0 -99.4209 -3 -104.199 -37c-2.81152 -20 20.6426 -31 45.6426 -31c57 0 80.6543 26 85.7139 62z" />
    <glyph glyph-name="Lslash" unicode="&#x141;" horiz-adv-x="519" 
d="M79 0l26.2812 187l-78.7139 -62l15.46 110l78.7129 62l57.7627 411h126l-42.1621 -300l231.438 181l-15.3184 -109l-231.579 -182l-25.8594 -184h301l-16.0215 -114h-427z" />
    <glyph glyph-name="Oslash" unicode="&#xd8;" horiz-adv-x="833" 
d="M246.687 197l392 370c-35.9238 29 -81.6758 45 -136.676 45c-146 0 -258.74 -112 -278.557 -253c-8.71387 -62 0.416016 -118 23.2324 -162zM679.222 521l-394.422 -373c36.3623 -33 84.6924 -52 144.692 -52c147 0 259.74 112 280.962 263
c8.85449 63 -2.13477 120 -31.2324 162zM838.108 755l42.957 -43l-99.2109 -94c52.8643 -65 75.2158 -155 60.0371 -263c-31.0596 -221 -207.859 -369 -429.421 -373c-92 0 -170.206 27 -225.601 74l-97.9297 -92l-43.957 43l100.211 94
c-48.0049 64 -69.0596 149 -54.8643 250c31.9023 227 208.703 375 426.703 375c89.2803 2 163.907 -22 220.864 -65z" />
    <glyph glyph-name="OE" unicode="&#x152;" horiz-adv-x="1000" 
d="M728.481 594l-24.4541 -174h270l-16.0215 -114h-270l-26.9844 -192h305l-16.0215 -114h-497c-255 0 -381.356 154 -353.248 354c28.3887 202 197.751 354 452.751 354h480l-16.0215 -114h-288zM535.021 114l67.46 480h-63c-92 0 -274.465 -46 -301.729 -240
c-27.2656 -194 142.27 -240 234.27 -240h63z" />
    <glyph glyph-name="ordmasculine" unicode="&#xba;" horiz-adv-x="397" 
d="M256.729 425c-93 0 -159.567 60 -145.34 147c12.3672 88 93.7998 148 186.8 148c94 0 160.567 -60 148.2 -148c-12.2275 -87 -95.6602 -147 -189.66 -147zM266.849 497c56 0 90.7627 41 95.541 75c4.91895 35 -18.3193 76 -74.3193 76s-89.7617 -41 -94.6807 -76
c-4.77832 -34 17.459 -75 73.459 -75z" />
    <glyph glyph-name="ae" unicode="&#xe6;" horiz-adv-x="852" 
d="M849.309 237l-4.63867 -33h-350c-13.9619 -78 48.292 -126 99.292 -126c59 0 101.936 28 137.136 65l74.708 -59c-62.5566 -68 -137.492 -96 -224.492 -96c-81 0 -139.659 38 -166.913 86c-51.1357 -65 -124.946 -85 -204.946 -85c-85 0 -168.816 44 -154.762 144
c16.0215 114 105.783 155 253.783 155h98c9.83789 70 -20.8379 115 -91.8379 115c-50 0 -98.8105 -20 -135.026 -50l-54.1465 63c60.5898 54 138.822 77 214.822 77c56.2803 2 117.048 -21 149.021 -71c43.9023 42 95.9785 71 164.838 70c156 0 214.978 -114 195.162 -255z
M250.103 79c81 0 135.011 57 142.881 113l1.68652 12h-60c-66 0 -151.405 -10 -158.854 -63c-6.46484 -46 42.2861 -62 74.2861 -62zM508.476 288h232c5.55664 68 -29.9785 114 -99.9785 114c-66 0 -118.745 -48 -132.021 -114z" />
    <glyph glyph-name="dotlessi" unicode="&#x131;" 
d="M70 0l67.46 480h120l-67.46 -480h-120z" />
    <glyph glyph-name="lslash" unicode="&#x142;" 
d="M70 0l38.3682 273l-78.6982 -69l15.3193 109l78.6973 69l52.5625 374h120l-35.8379 -255l78.6973 69l-15.0381 -107l-78.5566 -68l-55.5137 -395h-120z" />
    <glyph glyph-name="oslash" unicode="&#xf8;" horiz-adv-x="610" 
d="M209.486 160l225.108 200c-18.8916 15 -44.627 24 -75.627 24c-88 0 -150.697 -69 -161.238 -144c-4.0752 -29 -0.0107422 -57 11.7568 -80zM469.692 318l-225.968 -199c18.8916 -15 43.7676 -23 74.7676 -23c88 0 150.697 69 161.237 144
c3.93555 28 0.730469 55 -10.0371 78zM609.238 514l36.3779 -40l-79.9785 -71c29.0977 -42 43.2275 -98 34.0918 -163c-21.2217 -151 -151.416 -252 -296.416 -252c-61 0 -113.471 18 -152.113 49l-79.9785 -71l-34.2383 41l76.5576 68
c-31.0977 42 -45.0869 99 -35.8115 165c21.2217 151 151.417 252 296.417 252c61 0 114.47 -18 153.973 -50z" />
    <glyph glyph-name="oe" unicode="&#x153;" horiz-adv-x="926" 
d="M918.67 204h-350c-13.1182 -72 49.1357 -120 100.136 -120c59 0 101.935 28 137.135 65l74.708 -59c-63.3994 -74 -138.335 -102 -225.335 -102c-79 0 -137.064 28 -167.179 77c-55.4482 -53 -122.821 -77 -192.821 -77c-145 0 -246.806 101 -225.584 252
s151.417 252 296.417 252c71 0 132.486 -25 173.037 -78c50.4492 53 116.963 78 188.963 78c156 0 214.978 -114 195.162 -255zM576.476 288h234c8.83789 70 -30.9785 114 -94.9785 114c-57 0 -126.48 -39 -139.021 -114zM189.729 240
c-11.3838 -81 31.9189 -150 119.919 -150c90 0 152.697 69 164.081 150s-31.9189 150 -121.919 150c-88 0 -150.697 -69 -162.081 -150z" />
    <glyph glyph-name="germandbls" unicode="&#xdf;" horiz-adv-x="611" 
d="M56 0l71.8164 511c25.4375 181 115.119 257 276.119 257c116 0 208.286 -62 191 -185c-10.2598 -73 -56.2705 -130 -128.206 -158l-0.280273 -2c105.032 -14 145.805 -101 131.188 -205c-19.2539 -137 -130.324 -230 -267.324 -230c-28 0 -55.5781 3 -82.4541 11
l14.1943 101c16.876 -8 33.5947 -10 53.5947 -10c84 0 151.449 53 163.395 138c13.2109 94 -42.9023 143 -131.902 143h-14l14.335 102h8c59 0 108.919 35 117.211 94c7.72949 55 -32.9297 93 -87.9297 93c-80 0 -123.308 -52 -133.005 -121l-75.752 -539h-120z" />
    <glyph glyph-name="divide" unicode="&#xf7;" horiz-adv-x="666" 
d="M111.752 354h542l-14.3359 -102h-542zM325.881 483c5.7627 41 44.541 75 85.541 75s70.2217 -34 64.459 -75c-5.76172 -41 -44.54 -75 -85.54 -75s-70.2217 34 -64.46 75zM275.286 123c5.7627 41 44.541 75 85.541 75s70.2217 -34 64.459 -75
c-5.76172 -41 -44.54 -75 -85.54 -75s-70.2217 34 -64.46 75z" />
    <glyph glyph-name="threequarters" unicode="&#xbe;" horiz-adv-x="889" 
d="M737.064 157l25.0166 178h-2l-142.735 -176l-0.28125 -2h120zM207.773 468l11.8057 84h32c36 0 70.9834 7 76.3242 45c2.95117 21 -16.3623 33 -48.3623 33c-30 0 -56.249 -16 -67.1836 -44l-100.189 20c31.9463 85 102.021 114 180.021 114c81 0 149.8 -37 138.979 -114
c-6.60547 -47 -39.8057 -84 -92.0703 -93l-0.28125 -2c54.0166 -7 79.832 -51 72.9463 -100c-12.0869 -86 -93.9893 -128 -183.989 -128c-82 0 -141.362 33 -148.416 118l106.092 22c1.64258 -31 18.9727 -50 54.9727 -50s65.8271 13 70.7461 48
c6.46484 46 -36.3945 47 -80.3945 47h-23zM712 0l11.9463 85h-198l10.9619 78l224.821 262h112l-35.9785 -256h52l-11.8047 -84h-52l-11.9463 -85h-102zM211.843 6l519.157 734l77.6602 -38l-519.157 -734z" />
    <glyph glyph-name="onequarter" unicode="&#xbc;" horiz-adv-x="889" 
d="M208.616 289l44.5518 317l-94.541 -75l-45.7236 66l166.443 117h91l-59.7305 -425h-102zM705 0l11.9463 85h-198l10.9619 78l224.821 262h112l-35.9785 -256h53l-11.8047 -84h-53l-11.9463 -85h-102zM728.751 169l18.833 134l-0.71875 2l-114.114 -136h96zM184.843 6
l519.157 734l77.6602 -38l-519.157 -734z" />
    <glyph glyph-name="onesuperior" unicode="&#xb9;" horiz-adv-x="385" 
d="M219.616 289l44.5518 317l-94.541 -75l-45.7236 66l166.443 117h91l-59.7305 -425h-102z" />
    <glyph glyph-name="multiply" unicode="&#xd7;" horiz-adv-x="666" 
d="M228.281 557l157.281 -183l207.578 182l60.1621 -70l-206.438 -181l158.859 -186l-84.4004 -74l-157.562 181l-206.438 -181l-63.7402 73l210.578 182l-157.859 186z" />
    <glyph glyph-name="registered" unicode="&#xae;" horiz-adv-x="800" 
d="M279.908 163l54.8105 390h125c90 0 173.049 -21 159.838 -115c-9.83789 -70 -62.0215 -114 -104.864 -120l78.2158 -155h-105l-67.9189 150h-23l-21.0811 -150h-96zM418.757 475l-11.8057 -84h47c24 0 63.1406 1 68.9033 42c5.62109 40 -33.0977 42 -57.0977 42h-47z
M77.752 354c28.8105 205 219.281 372 424.281 372s348.529 -167 319.719 -372c-28.8115 -205 -219.281 -372 -424.281 -372s-348.53 167 -319.719 372zM173.752 354c-22.6279 -161 80.5234 -288 235.523 -288s293.849 127 316.477 288c22.627 161 -80.5244 288 -235.524 288
s-293.849 -127 -316.476 -288z" />
    <glyph glyph-name="Thorn" unicode="&#xde;" horiz-adv-x="611" 
d="M79 0l99.5029 708h126l-19.2539 -137h112c137 0 254.254 -48 232.189 -205c-25.0166 -178 -162.514 -210 -312.514 -210h-90l-21.9248 -156h-126zM242.103 264h76c72 0 165.562 4 179.055 100c12.2266 87 -69.0869 99 -137.087 99h-90z" />
    <glyph glyph-name="brokenbar" unicode="&#xa6;" horiz-adv-x="222" 
d="M154.865 675h102l-49.1895 -350h-102zM84.5947 175h102l-49.1895 -350h-102z" />
    <glyph glyph-name="Eth" unicode="&#xd0;" horiz-adv-x="759" 
d="M79 0l45.5352 324h-66l11.8057 84h66l42.1621 300h279c186 0 343.979 -114 310.249 -354c-34.0117 -242 -254.752 -354 -424.752 -354h-264zM221.021 114h94c158 0 296.557 68 320.73 240c24.1729 172 -78.2705 240 -232.271 240h-115l-26.1406 -186h216l-11.8057 -84
h-216z" />
    <glyph glyph-name="onehalf" unicode="&#xbd;" horiz-adv-x="889" 
d="M211.616 289l44.5518 317l-94.541 -75l-45.7236 66l166.443 117h91l-59.7305 -425h-102zM535 0l13.3516 95l200.362 152c20.248 16 45.9189 35 48.7295 55c3.93555 28 -20.5186 39 -50.5186 39c-36 0 -63.373 -24 -69.5898 -54l-95.1562 6
c19.3516 95 91.3945 138 182.395 138c88 0 146.957 -43 135.011 -128c-6.18359 -44 -31.2432 -80 -73.3193 -109l-155.178 -108l-0.28125 -2h198l-11.8057 -84h-322zM186.843 6l519.157 734l77.6602 -38l-519.157 -734z" />
    <glyph glyph-name="minus" unicode="&#x2212;" horiz-adv-x="666" 
d="M111.752 354h542l-14.3359 -102h-542z" />
    <glyph glyph-name="ccedilla" unicode="&#xe7;" horiz-adv-x="482" 
d="M537.887 419l-94.665 -83c-23.9238 29 -52.2539 48 -84.2539 48c-88 0 -150.697 -69 -161.238 -144c-10.54 -75 32.7627 -144 120.763 -144c37 0 73.248 16 99.3242 45l67.9131 -86c-54.7461 -48 -138.416 -67 -180.416 -67l-40.7461 -48c59 0 120.157 -6 109.335 -83
c-10.2588 -73 -92.6318 -97 -152.632 -97c-37 0 -72.5947 10 -102.065 28l28.4648 46c23.1729 -13 50.1895 -20 79.1895 -20c22 0 58.2646 9 62.9023 42c3.6543 26 -24.9404 36 -45.9404 36c-13 0 -25.4209 -3 -37.9834 -7l-23.4863 25l68.665 83
c-116.049 21 -191.838 115 -173.287 247c21.2217 151 151.417 252 296.417 252c61 0 124.908 -22 163.74 -73z" />
    <glyph glyph-name="eth" unicode="&#xf0;" horiz-adv-x="610" 
d="M549.936 768l56.1299 -56l-124.59 -54c81.2432 -105 144.535 -231 123.454 -381c-23.4697 -167 -129.616 -289 -301.616 -289c-145 0 -246.806 101 -225.584 252s151.417 252 286.417 252c44 0 83.5947 -10 108.659 -38l2.28125 2c-26.2705 55 -64.3838 104 -104.638 152
l-2.5791 3l-112.886 -49l-51.9893 57l114.026 50c-15.3291 19 -50.2539 48 -67.8643 65l108.151 58c32.0645 -28 61.4268 -61 74.459 -75zM318.492 96c88 0 150.697 69 161.237 144c10.541 75 -32.7617 144 -120.762 144s-150.697 -69 -161.238 -144
c-10.54 -75 32.7627 -144 120.763 -144z" />
    <glyph glyph-name="plusminus" unicode="&#xb1;" horiz-adv-x="666" 
d="M343.573 431l20.0977 143h102l-20.0977 -143h219l-14.335 -102h-219l-20.0977 -143h-102l20.0977 143h-221l14.335 102h221zM66.4971 32l14.335 102h542l-14.335 -102h-542z" />
    <glyph glyph-name="Ccedilla" unicode="&#xc7;" horiz-adv-x="685" 
d="M749.292 614l-108.119 -72c-44.2695 55 -90.1621 70 -139.162 70c-146 0 -258.74 -112 -278.557 -253c-21.2217 -151 60.0381 -263 206.038 -263c57 0 115.654 26 171.086 86l93.6006 -74c-75.2275 -87 -174.568 -125 -277.708 -126l-34.9033 -42
c59 0 120.157 -6 109.335 -83c-10.2588 -73 -92.6318 -97 -152.632 -97c-37 0 -72.5947 10 -102.065 28l28.4648 46c23.1729 -13 50.1895 -20 79.1895 -20c22 0 58.2646 9 62.9023 42c3.6543 26 -24.9404 36 -45.9404 36c-13 0 -25.4209 -3 -37.9834 -7l-23.4863 25
l61.54 75c-187.908 22 -299.092 163 -270.562 366c31.9023 227 208.703 375 426.703 375c96 0 173.643 -31 232.259 -112z" />
    <glyph glyph-name="thorn" unicode="&#xfe;" horiz-adv-x="630" 
d="M35.957 -228l138.292 984h120l-47.5029 -338h2c35.7461 48 102.4 74 169.4 74c148 0 221.54 -110 201.583 -252c-19.9561 -142 -130.416 -252 -267.416 -252c-90 0 -132.098 42 -152.74 73h-3l-40.6162 -289h-120zM499.729 240c10.541 75 -32.7617 144 -120.762 144
s-150.697 -69 -161.238 -144c-10.54 -75 32.7627 -144 120.763 -144s150.697 69 161.237 144z" />
    <glyph glyph-name="copyright" unicode="&#xa9;" horiz-adv-x="800" 
d="M535.74 297h94c-28.0537 -100 -112.643 -154 -199.643 -154c-126 0 -185.789 94 -168.925 214c17.2871 123 98.5137 210 226.514 210c90 0 158.254 -48 159.622 -145h-94c-2.53516 46 -33.4277 61 -69.4277 61c-77 0 -116.308 -52 -126.427 -124
c-10.4004 -74 18.4482 -132 88.4482 -132c42 0 79.5303 18 89.8379 70zM77.752 354c28.8105 205 219.281 372 424.281 372s348.529 -167 319.719 -372c-28.8115 -205 -219.281 -372 -424.281 -372s-348.53 167 -319.719 372zM173.752 354
c-22.6279 -161 80.5234 -288 235.523 -288s293.849 127 316.477 288c22.627 161 -80.5244 288 -235.524 288s-293.849 -127 -316.476 -288z" />
    <glyph glyph-name="logicalnot" unicode="&#xac;" horiz-adv-x="666" 
d="M522.659 147l27.4062 195h-440l14.335 102h542l-41.7412 -297h-102z" />
    <glyph glyph-name="twosuperior" unicode="&#xb2;" horiz-adv-x="385" 
d="M71.6162 289l13.3516 95l201.362 152c20.249 16 45.9189 35 48.7295 55c3.93555 28 -20.5186 39 -50.5186 39c-36 0 -63.373 -24 -69.5898 -54l-95.1562 6c19.3516 95 91.3945 138 182.395 138c88 0 146.957 -43 135.011 -128c-6.18359 -44 -31.2432 -80 -73.3193 -109
l-155.178 -108l-0.28125 -2h198l-11.8057 -84h-323z" />
    <glyph glyph-name="threesuperior" unicode="&#xb3;" horiz-adv-x="385" 
d="M211.773 468l11.8057 84h32c36 0 70.9834 7 76.3242 45c2.95117 21 -16.3623 33 -48.3623 33c-30 0 -56.249 -16 -67.1836 -44l-100.189 20c31.9463 85 102.021 114 180.021 114c81 0 149.8 -37 138.979 -114c-6.60547 -47 -39.8057 -84 -92.0703 -93l-0.28125 -2
c54.0166 -7 79.832 -51 72.9463 -100c-12.0869 -86 -93.9893 -128 -183.989 -128c-82 0 -141.362 33 -148.416 118l106.092 22c1.64258 -31 18.9727 -50 54.9727 -50s65.8271 13 70.7461 48c6.46484 46 -36.3945 47 -80.3945 47h-23z" />
    <glyph glyph-name="trademark" unicode="&#x2122;" horiz-adv-x="1000" 
d="M203.601 296l45.2539 322h-122l12.6484 90h346l-12.6484 -90h-122l-45.2539 -322h-102zM521.601 296l57.9023 412h142l60.335 -268l135.665 268h142l-57.9023 -412h-102l37.6641 268h-2l-138.664 -268h-70l-63.3359 268h-2l-37.6641 -268h-102z" />
    <glyph glyph-name="degree" unicode="&#xb0;" horiz-adv-x="400" 
d="M118.703 560c12.3672 88 94.4863 160 182.486 160s149.881 -72 137.514 -160c-12.3682 -88 -94.4863 -160 -182.486 -160s-149.882 72 -137.514 160zM196.703 560c-6.32422 -45 25.4756 -82 70.4756 -82s87.2002 37 93.5244 82s-25.4756 82 -70.4756 82
s-87.2002 -37 -93.5244 -82z" />
    <glyph glyph-name="mu" unicode="&#xb5;" horiz-adv-x="574" 
d="M135.46 480h120l-34.1514 -243c-7.44922 -53 -15.8164 -141 68.1836 -141c79 0 118.151 58 127.146 122l36.8223 262h120l-67.46 -480h-114l10.8213 77h-2c-28.7451 -48 -79.5078 -89 -159.508 -89c-21 0 -38.7188 2 -54.0166 7l-31.3398 -223h-120z" />
    <glyph glyph-name="Aacute" unicode="&#xc1;" horiz-adv-x="722" 
d="M0 0l407.503 708h109l205.497 -708h-144l-43.2324 162h-307l-86.7676 -162h-141zM285.946 270h220l-68.5244 288zM420.248 756l119.238 144h136l-161.238 -144h-94z" />
    <glyph glyph-name="Acircumflex" unicode="&#xc2;" horiz-adv-x="722" 
d="M0 0l407.503 708h109l205.497 -708h-144l-43.2324 162h-307l-86.7676 -162h-141zM285.946 270h220l-68.5244 288zM649.248 756h-114l-56.3506 90l-81.6494 -90h-112l135.238 144h135z" />
    <glyph glyph-name="Adieresis" unicode="&#xc4;" horiz-adv-x="722" 
d="M0 0l407.503 708h109l205.497 -708h-144l-43.2324 162h-307l-86.7676 -162h-141zM285.946 270h220l-68.5244 288zM297.367 828c5.34082 38 42.1191 72 86.1191 72s73.6436 -31 67.8809 -72c-5.76172 -41 -44.1191 -72 -88.1191 -72s-71.2207 34 -65.8809 72zM503.367 828
c5.34082 38 42.1191 72 86.1191 72s73.6436 -31 67.8809 -72c-5.76172 -41 -44.1191 -72 -88.1191 -72s-71.2207 34 -65.8809 72z" />
    <glyph glyph-name="Agrave" unicode="&#xc0;" horiz-adv-x="722" 
d="M0 0l407.503 708h109l205.497 -708h-144l-43.2324 162h-307l-86.7676 -162h-141zM285.946 270h220l-68.5244 288zM435.486 900l78.7617 -144h-94l-120.762 144h136z" />
    <glyph glyph-name="Aring" unicode="&#xc5;" horiz-adv-x="722" 
d="M0 0l407.503 708h109l205.497 -708h-144l-43.2324 162h-307l-86.7676 -162h-141zM285.946 270h220l-68.5244 288zM583.633 837c-8.29199 -59 -60.3359 -102 -119.336 -102s-98.9561 43 -90.8047 101c8.29199 59 59.4756 103 119.476 103c59 0 98.957 -43 90.665 -102z
M535.633 837c4.35645 31 -19.4111 54 -49.4111 54s-60.2324 -23 -64.5889 -54c-4.35742 -31 19.4102 -54 49.4102 -54s60.0918 22 64.5898 54z" />
    <glyph glyph-name="Atilde" unicode="&#xc3;" horiz-adv-x="722" 
d="M0 0l407.503 708h109l205.497 -708h-144l-43.2324 162h-307l-86.7676 -162h-141zM285.946 270h220l-68.5244 288zM349.811 760h-66c19.9951 64 54.8486 127 129.849 127c54 0 106.8 -37 138.8 -37c27 0 41.8115 20 51.9033 42h66
c-19.9951 -64 -54.8486 -127 -129.849 -127c-54 0 -106.66 38 -138.66 38c-27 0 -41.9512 -21 -52.043 -43z" />
    <glyph glyph-name="Eacute" unicode="&#xc9;" horiz-adv-x="611" 
d="M79 0l99.5029 708h469l-16.0215 -114h-343l-24.4541 -174h325l-16.0215 -114h-325l-26.9844 -192h361l-16.0215 -114h-487zM365.248 756l119.238 144h136l-161.238 -144h-94z" />
    <glyph glyph-name="Ecircumflex" unicode="&#xca;" horiz-adv-x="611" 
d="M79 0l99.5029 708h469l-16.0215 -114h-343l-24.4541 -174h325l-16.0215 -114h-325l-26.9844 -192h361l-16.0215 -114h-487zM594.248 756h-114l-56.3506 90l-81.6494 -90h-112l135.238 144h135z" />
    <glyph glyph-name="Edieresis" unicode="&#xcb;" horiz-adv-x="611" 
d="M79 0l99.5029 708h469l-16.0215 -114h-343l-24.4541 -174h325l-16.0215 -114h-325l-26.9844 -192h361l-16.0215 -114h-487zM242.367 828c5.34082 38 42.1191 72 86.1191 72s73.6436 -31 67.8809 -72c-5.76172 -41 -44.1191 -72 -88.1191 -72s-71.2207 34 -65.8809 72z
M448.367 828c5.34082 38 42.1191 72 86.1191 72s73.6436 -31 67.8809 -72c-5.76172 -41 -44.1191 -72 -88.1191 -72s-71.2207 34 -65.8809 72z" />
    <glyph glyph-name="Egrave" unicode="&#xc8;" horiz-adv-x="611" 
d="M79 0l99.5029 708h469l-16.0215 -114h-343l-24.4541 -174h325l-16.0215 -114h-325l-26.9844 -192h361l-16.0215 -114h-487zM380.486 900l78.7617 -144h-94l-120.762 144h136z" />
    <glyph glyph-name="Iacute" unicode="&#xcd;" horiz-adv-x="278" 
d="M76 0l99.5029 708h126l-99.5029 -708h-126zM198.248 756l119.238 144h136l-161.238 -144h-94z" />
    <glyph glyph-name="Icircumflex" unicode="&#xce;" horiz-adv-x="278" 
d="M76 0l99.5029 708h126l-99.5029 -708h-126zM427.248 756h-114l-56.3506 90l-81.6494 -90h-112l135.238 144h135z" />
    <glyph glyph-name="Idieresis" unicode="&#xcf;" horiz-adv-x="278" 
d="M76 0l99.5029 708h126l-99.5029 -708h-126zM75.3672 828c5.34082 38 42.1191 72 86.1191 72s73.6436 -31 67.8809 -72c-5.76172 -41 -44.1191 -72 -88.1191 -72s-71.2207 34 -65.8809 72zM281.367 828c5.34082 38 42.1191 72 86.1191 72s73.6436 -31 67.8809 -72
c-5.76172 -41 -44.1191 -72 -88.1191 -72s-71.2207 34 -65.8809 72z" />
    <glyph glyph-name="Igrave" unicode="&#xcc;" horiz-adv-x="278" 
d="M76 0l99.5029 708h126l-99.5029 -708h-126zM213.486 900l78.7617 -144h-94l-120.762 144h136z" />
    <glyph glyph-name="Ntilde" unicode="&#xd1;" horiz-adv-x="796" 
d="M79 0l99.5029 708h167l269.075 -526l1.71973 -2h-2l2.28027 2l73.9248 526h126l-99.5029 -708h-160l-273.687 543h-2l-76.3135 -543h-126zM386.811 760h-66c19.9951 64 54.8486 127 129.849 127c54 0 106.8 -37 138.8 -37c27 0 41.8115 20 51.9033 42h66
c-19.9951 -64 -54.8486 -127 -129.849 -127c-54 0 -106.66 38 -138.66 38c-27 0 -41.9512 -21 -52.043 -43z" />
    <glyph glyph-name="Oacute" unicode="&#xd3;" horiz-adv-x="833" 
d="M90.3301 351c31.9023 227 208.703 375 426.703 375c221.562 4 356.762 -144 324.858 -371c-31.0596 -221 -207.859 -369 -429.421 -373c-218 0 -353.2 148 -322.141 369zM223.454 359c-21.2217 -151 60.0381 -263 206.038 -263c147 0 259.74 112 280.962 263
c19.8164 141 -61.4434 253 -208.443 253c-146 0 -258.74 -112 -278.557 -253zM476.248 756l119.238 144h136l-161.238 -144h-94z" />
    <glyph glyph-name="Ocircumflex" unicode="&#xd4;" horiz-adv-x="833" 
d="M90.3301 351c31.9023 227 208.703 375 426.703 375c221.562 4 356.762 -144 324.858 -371c-31.0596 -221 -207.859 -369 -429.421 -373c-218 0 -353.2 148 -322.141 369zM223.454 359c-21.2217 -151 60.0381 -263 206.038 -263c147 0 259.74 112 280.962 263
c19.8164 141 -61.4434 253 -208.443 253c-146 0 -258.74 -112 -278.557 -253zM705.248 756h-114l-56.3506 90l-81.6494 -90h-112l135.238 144h135z" />
    <glyph glyph-name="Odieresis" unicode="&#xd6;" horiz-adv-x="833" 
d="M90.3301 351c31.9023 227 208.703 375 426.703 375c221.562 4 356.762 -144 324.858 -371c-31.0596 -221 -207.859 -369 -429.421 -373c-218 0 -353.2 148 -322.141 369zM223.454 359c-21.2217 -151 60.0381 -263 206.038 -263c147 0 259.74 112 280.962 263
c19.8164 141 -61.4434 253 -208.443 253c-146 0 -258.74 -112 -278.557 -253zM353.367 828c5.34082 38 42.1191 72 86.1191 72s73.6436 -31 67.8809 -72c-5.76172 -41 -44.1191 -72 -88.1191 -72s-71.2207 34 -65.8809 72zM559.367 828c5.34082 38 42.1191 72 86.1191 72
s73.6436 -31 67.8809 -72c-5.76172 -41 -44.1191 -72 -88.1191 -72s-71.2207 34 -65.8809 72z" />
    <glyph glyph-name="Ograve" unicode="&#xd2;" horiz-adv-x="833" 
d="M90.3301 351c31.9023 227 208.703 375 426.703 375c221.562 4 356.762 -144 324.858 -371c-31.0596 -221 -207.859 -369 -429.421 -373c-218 0 -353.2 148 -322.141 369zM223.454 359c-21.2217 -151 60.0381 -263 206.038 -263c147 0 259.74 112 280.962 263
c19.8164 141 -61.4434 253 -208.443 253c-146 0 -258.74 -112 -278.557 -253zM491.486 900l78.7617 -144h-94l-120.762 144h136z" />
    <glyph glyph-name="Otilde" unicode="&#xd5;" horiz-adv-x="833" 
d="M90.3301 351c31.9023 227 208.703 375 426.703 375c221.562 4 356.762 -144 324.858 -371c-31.0596 -221 -207.859 -369 -429.421 -373c-218 0 -353.2 148 -322.141 369zM223.454 359c-21.2217 -151 60.0381 -263 206.038 -263c147 0 259.74 112 280.962 263
c19.8164 141 -61.4434 253 -208.443 253c-146 0 -258.74 -112 -278.557 -253zM405.811 760h-66c19.9951 64 54.8486 127 129.849 127c54 0 106.8 -37 138.8 -37c27 0 41.8115 20 51.9033 42h66c-19.9951 -64 -54.8486 -127 -129.849 -127c-54 0 -106.66 38 -138.66 38
c-27 0 -41.9512 -21 -52.043 -43z" />
    <glyph glyph-name="Scaron" unicode="&#x160;" horiz-adv-x="574" 
d="M609.773 653l-105.633 -97c-21.6592 38 -67.1299 56 -116.13 56c-58 0 -119.653 -26 -128.789 -91c-19.957 -142 327.427 -61 292.011 -313c-21.3623 -152 -151.762 -226 -290.762 -226c-88 0 -170.206 27 -218.509 96l107.93 92c24.3945 -47 73.6006 -74 129.601 -74
c58 0 128.497 32 137.632 97c21.7842 155 -326.724 66 -291.167 319c20.5186 146 160.076 214 291.076 214c74 0 145.048 -21 192.74 -73zM232.486 900h114l56.3516 -90l81.6484 90h110l-135.238 -144h-133z" />
    <glyph glyph-name="Uacute" unicode="&#xda;" horiz-adv-x="722" 
d="M745.503 708l-62.9619 -448c-24.0332 -171 -162.07 -278 -324.07 -278s-269.963 107 -245.93 278l62.9619 448h126l-62.4004 -444c-9.83789 -70 15.2324 -162 136.232 -162s171.93 92 181.768 162l62.4004 444h126zM420.248 756l119.238 144h136l-161.238 -144h-94z" />
    <glyph glyph-name="Ucircumflex" unicode="&#xdb;" horiz-adv-x="722" 
d="M745.503 708l-62.9619 -448c-24.0332 -171 -162.07 -278 -324.07 -278s-269.963 107 -245.93 278l62.9619 448h126l-62.4004 -444c-9.83789 -70 15.2324 -162 136.232 -162s171.93 92 181.768 162l62.4004 444h126zM649.248 756h-114l-56.3506 90l-81.6494 -90h-112
l135.238 144h135z" />
    <glyph glyph-name="Udieresis" unicode="&#xdc;" horiz-adv-x="722" 
d="M745.503 708l-62.9619 -448c-24.0332 -171 -162.07 -278 -324.07 -278s-269.963 107 -245.93 278l62.9619 448h126l-62.4004 -444c-9.83789 -70 15.2324 -162 136.232 -162s171.93 92 181.768 162l62.4004 444h126zM297.367 828c5.34082 38 42.1191 72 86.1191 72
s73.6436 -31 67.8809 -72c-5.76172 -41 -44.1191 -72 -88.1191 -72s-71.2207 34 -65.8809 72zM503.367 828c5.34082 38 42.1191 72 86.1191 72s73.6436 -31 67.8809 -72c-5.76172 -41 -44.1191 -72 -88.1191 -72s-71.2207 34 -65.8809 72z" />
    <glyph glyph-name="Ugrave" unicode="&#xd9;" horiz-adv-x="722" 
d="M745.503 708l-62.9619 -448c-24.0332 -171 -162.07 -278 -324.07 -278s-269.963 107 -245.93 278l62.9619 448h126l-62.4004 -444c-9.83789 -70 15.2324 -162 136.232 -162s171.93 92 181.768 162l62.4004 444h126zM435.486 900l78.7617 -144h-94l-120.762 144h136z" />
    <glyph glyph-name="Yacute" unicode="&#xdd;" horiz-adv-x="630" 
d="M252 0l42.584 303l-209.081 405h158l134.367 -282l215.633 282h150l-322.919 -405l-42.584 -303h-126zM374.248 756l119.238 144h136l-161.238 -144h-94z" />
    <glyph glyph-name="Ydieresis" unicode="&#x178;" horiz-adv-x="630" 
d="M252 0l42.584 303l-209.081 405h158l134.367 -282l215.633 282h150l-322.919 -405l-42.584 -303h-126zM251.367 828c5.34082 38 42.1191 72 86.1191 72s73.6436 -31 67.8809 -72c-5.76172 -41 -44.1191 -72 -88.1191 -72s-71.2207 34 -65.8809 72zM457.367 828
c5.34082 38 42.1191 72 86.1191 72s73.6436 -31 67.8809 -72c-5.76172 -41 -44.1191 -72 -88.1191 -72s-71.2207 34 -65.8809 72z" />
    <glyph glyph-name="Zcaron" unicode="&#x17d;" horiz-adv-x="611" 
d="M35 0l16.0215 114l445.46 480h-372l16.0215 114h529l-16.0215 -114l-448.46 -480h387l-16.0215 -114h-541zM251.486 900h114l56.3516 -90l81.6484 90h110l-135.238 -144h-133z" />
    <glyph glyph-name="aacute" unicode="&#xe1;" horiz-adv-x="537" 
d="M368 0l9.27539 66h-3c-41.5889 -54 -100.962 -78 -164.962 -78c-89 0 -168.113 49 -154.762 144c21.9238 156 205.47 167 325.47 167h30l1.82715 13c8.29199 59 -33.3516 90 -97.3516 90c-50 0 -98.8105 -20 -135.026 -50l-54.1465 63c60.5898 54 138.822 77 214.822 77
c205 0 184.199 -148 174.643 -216l-38.7891 -276h-108zM387.422 188l3.79492 27h-25c-66 0 -180.703 -5 -190.4 -74c-6.18359 -44 36.1455 -63 75.1455 -63c82 0 127.044 43 136.46 110zM301.265 564l119.238 144h136l-161.238 -144h-94z" />
    <glyph glyph-name="acircumflex" unicode="&#xe2;" horiz-adv-x="537" 
d="M368 0l9.27539 66h-3c-41.5889 -54 -100.962 -78 -164.962 -78c-89 0 -168.113 49 -154.762 144c21.9238 156 205.47 167 325.47 167h30l1.82715 13c8.29199 59 -33.3516 90 -97.3516 90c-50 0 -98.8105 -20 -135.026 -50l-54.1465 63c60.5898 54 138.822 77 214.822 77
c205 0 184.199 -148 174.643 -216l-38.7891 -276h-108zM387.422 188l3.79492 27h-25c-66 0 -180.703 -5 -190.4 -74c-6.18359 -44 36.1455 -63 75.1455 -63c82 0 127.044 43 136.46 110zM530.265 564h-114l-56.3506 90l-81.6494 -90h-112l135.238 144h135z" />
    <glyph glyph-name="adieresis" unicode="&#xe4;" horiz-adv-x="537" 
d="M368 0l9.27539 66h-3c-41.5889 -54 -100.962 -78 -164.962 -78c-89 0 -168.113 49 -154.762 144c21.9238 156 205.47 167 325.47 167h30l1.82715 13c8.29199 59 -33.3516 90 -97.3516 90c-50 0 -98.8105 -20 -135.026 -50l-54.1465 63c60.5898 54 138.822 77 214.822 77
c205 0 184.199 -148 174.643 -216l-38.7891 -276h-108zM387.422 188l3.79492 27h-25c-66 0 -180.703 -5 -190.4 -74c-6.18359 -44 36.1455 -63 75.1455 -63c82 0 127.044 43 136.46 110zM178.384 636c5.34082 38 42.1191 72 86.1191 72s73.6436 -31 67.8809 -72
c-5.76172 -41 -44.1191 -72 -88.1191 -72s-71.2207 34 -65.8809 72zM384.384 636c5.34082 38 42.1191 72 86.1191 72s73.6436 -31 67.8809 -72c-5.76172 -41 -44.1191 -72 -88.1191 -72s-71.2207 34 -65.8809 72z" />
    <glyph glyph-name="agrave" unicode="&#xe0;" horiz-adv-x="537" 
d="M368 0l9.27539 66h-3c-41.5889 -54 -100.962 -78 -164.962 -78c-89 0 -168.113 49 -154.762 144c21.9238 156 205.47 167 325.47 167h30l1.82715 13c8.29199 59 -33.3516 90 -97.3516 90c-50 0 -98.8105 -20 -135.026 -50l-54.1465 63c60.5898 54 138.822 77 214.822 77
c205 0 184.199 -148 174.643 -216l-38.7891 -276h-108zM387.422 188l3.79492 27h-25c-66 0 -180.703 -5 -190.4 -74c-6.18359 -44 36.1455 -63 75.1455 -63c82 0 127.044 43 136.46 110zM316.503 708l78.7617 -144h-94l-120.762 144h136z" />
    <glyph glyph-name="aring" unicode="&#xe5;" horiz-adv-x="537" 
d="M368 0l9.27539 66h-3c-41.5889 -54 -100.962 -78 -164.962 -78c-89 0 -168.113 49 -154.762 144c21.9238 156 205.47 167 325.47 167h30l1.82715 13c8.29199 59 -33.3516 90 -97.3516 90c-50 0 -98.8105 -20 -135.026 -50l-54.1465 63c60.5898 54 138.822 77 214.822 77
c205 0 184.199 -148 174.643 -216l-38.7891 -276h-108zM387.422 188l3.79492 27h-25c-66 0 -180.703 -5 -190.4 -74c-6.18359 -44 36.1455 -63 75.1455 -63c82 0 127.044 43 136.46 110zM466.055 655c-8.29199 -59 -60.3359 -102 -119.336 -102s-98.9561 43 -90.8047 101
c8.29199 59 59.4756 103 119.476 103c59 0 98.957 -43 90.665 -102zM418.055 655c4.35645 31 -19.4111 54 -49.4111 54s-60.2324 -23 -64.5889 -54c-4.35742 -31 19.4102 -54 49.4102 -54s60.0918 22 64.5898 54z" />
    <glyph glyph-name="atilde" unicode="&#xe3;" horiz-adv-x="537" 
d="M368 0l9.27539 66h-3c-41.5889 -54 -100.962 -78 -164.962 -78c-89 0 -168.113 49 -154.762 144c21.9238 156 205.47 167 325.47 167h30l1.82715 13c8.29199 59 -33.3516 90 -97.3516 90c-50 0 -98.8105 -20 -135.026 -50l-54.1465 63c60.5898 54 138.822 77 214.822 77
c205 0 184.199 -148 174.643 -216l-38.7891 -276h-108zM387.422 188l3.79492 27h-25c-66 0 -180.703 -5 -190.4 -74c-6.18359 -44 36.1455 -63 75.1455 -63c82 0 127.044 43 136.46 110zM230.827 568h-66c19.9951 64 54.8486 127 129.849 127c54 0 106.8 -37 138.8 -37
c27 0 41.8115 20 51.9033 42h66c-19.9951 -64 -54.8486 -127 -129.849 -127c-54 0 -106.66 38 -138.66 38c-27 0 -41.9512 -21 -52.043 -43z" />
    <glyph glyph-name="eacute" unicode="&#xe9;" horiz-adv-x="574" 
d="M557.827 198h-366c-1.97852 -71 45.9785 -114 112.979 -114c60 0 102.935 28 138.135 65l76.8652 -65c-65.6973 -69 -140.492 -96 -216.492 -96c-145 0 -246.806 101 -225.584 252s151.417 252 296.417 252c134 0 211.789 -94 188.318 -261zM204.476 288h246
c8.83789 70 -30.9785 114 -105.979 114c-71 0 -121.324 -45 -140.021 -114zM319.265 564l119.238 144h136l-161.238 -144h-94z" />
    <glyph glyph-name="ecircumflex" unicode="&#xea;" horiz-adv-x="574" 
d="M557.827 198h-366c-1.97852 -71 45.9785 -114 112.979 -114c60 0 102.935 28 138.135 65l76.8652 -65c-65.6973 -69 -140.492 -96 -216.492 -96c-145 0 -246.806 101 -225.584 252s151.417 252 296.417 252c134 0 211.789 -94 188.318 -261zM204.476 288h246
c8.83789 70 -30.9785 114 -105.979 114c-71 0 -121.324 -45 -140.021 -114zM548.265 564h-114l-56.3506 90l-81.6494 -90h-112l135.238 144h135z" />
    <glyph glyph-name="edieresis" unicode="&#xeb;" horiz-adv-x="574" 
d="M557.827 198h-366c-1.97852 -71 45.9785 -114 112.979 -114c60 0 102.935 28 138.135 65l76.8652 -65c-65.6973 -69 -140.492 -96 -216.492 -96c-145 0 -246.806 101 -225.584 252s151.417 252 296.417 252c134 0 211.789 -94 188.318 -261zM204.476 288h246
c8.83789 70 -30.9785 114 -105.979 114c-71 0 -121.324 -45 -140.021 -114zM196.384 636c5.34082 38 42.1191 72 86.1191 72s73.6436 -31 67.8809 -72c-5.76172 -41 -44.1191 -72 -88.1191 -72s-71.2207 34 -65.8809 72zM402.384 636c5.34082 38 42.1191 72 86.1191 72
s73.6436 -31 67.8809 -72c-5.76172 -41 -44.1191 -72 -88.1191 -72s-71.2207 34 -65.8809 72z" />
    <glyph glyph-name="egrave" unicode="&#xe8;" horiz-adv-x="574" 
d="M557.827 198h-366c-1.97852 -71 45.9785 -114 112.979 -114c60 0 102.935 28 138.135 65l76.8652 -65c-65.6973 -69 -140.492 -96 -216.492 -96c-145 0 -246.806 101 -225.584 252s151.417 252 296.417 252c134 0 211.789 -94 188.318 -261zM204.476 288h246
c8.83789 70 -30.9785 114 -105.979 114c-71 0 -121.324 -45 -140.021 -114zM334.503 708l78.7617 -144h-94l-120.762 144h136z" />
    <glyph glyph-name="iacute" unicode="&#xed;" 
d="M70 0l67.46 480h120l-67.46 -480h-120zM150.265 564l119.238 144h136l-161.238 -144h-94z" />
    <glyph glyph-name="icircumflex" unicode="&#xee;" 
d="M70 0l67.46 480h120l-67.46 -480h-120zM391.265 564h-114l-56.3506 90l-81.6494 -90h-112l135.238 144h135z" />
    <glyph glyph-name="idieresis" unicode="&#xef;" 
d="M70 0l67.46 480h120l-67.46 -480h-120zM39.3838 636c5.34082 38 42.1191 72 86.1191 72s73.6436 -31 67.8809 -72c-5.76172 -41 -44.1191 -72 -88.1191 -72s-71.2207 34 -65.8809 72zM245.384 636c5.34082 38 42.1191 72 86.1191 72s73.6436 -31 67.8809 -72
c-5.76172 -41 -44.1191 -72 -88.1191 -72s-71.2207 34 -65.8809 72z" />
    <glyph glyph-name="igrave" unicode="&#xec;" 
d="M70 0l67.46 480h120l-67.46 -480h-120zM189.503 708l78.7617 -144h-94l-120.762 144h136z" />
    <glyph glyph-name="ntilde" unicode="&#xf1;" horiz-adv-x="574" 
d="M68 0l67.46 480h114l-10.8223 -77h2c28.7461 48 79.5088 89 159.509 89c129 0 162.211 -91 148.438 -189l-42.584 -303h-120l34.1514 243c7.44922 53 15.8164 141 -68.1836 141c-79 0 -118.151 -58 -127.146 -122l-36.8213 -262h-120zM248.827 568h-66
c19.9951 64 54.8486 127 129.849 127c54 0 106.8 -37 138.8 -37c27 0 41.8115 20 51.9033 42h66c-19.9951 -64 -54.8486 -127 -129.849 -127c-54 0 -106.66 38 -138.66 38c-27 0 -41.9512 -21 -52.043 -43z" />
    <glyph glyph-name="oacute" unicode="&#xf3;" horiz-adv-x="610" 
d="M77.7295 240c21.2217 151 151.417 252 296.417 252s246.805 -101 225.583 -252s-151.416 -252 -296.416 -252s-246.806 101 -225.584 252zM197.729 240c-10.54 -75 32.7627 -144 120.763 -144s150.697 69 161.237 144c10.541 75 -32.7617 144 -120.762 144
s-150.697 -69 -161.238 -144zM337.265 564l119.238 144h136l-161.238 -144h-94z" />
    <glyph glyph-name="ocircumflex" unicode="&#xf4;" horiz-adv-x="610" 
d="M77.7295 240c21.2217 151 151.417 252 296.417 252s246.805 -101 225.583 -252s-151.416 -252 -296.416 -252s-246.806 101 -225.584 252zM197.729 240c-10.54 -75 32.7627 -144 120.763 -144s150.697 69 161.237 144c10.541 75 -32.7617 144 -120.762 144
s-150.697 -69 -161.238 -144zM566.265 564h-114l-56.3506 90l-81.6494 -90h-112l135.238 144h135z" />
    <glyph glyph-name="odieresis" unicode="&#xf6;" horiz-adv-x="610" 
d="M77.7295 240c21.2217 151 151.417 252 296.417 252s246.805 -101 225.583 -252s-151.416 -252 -296.416 -252s-246.806 101 -225.584 252zM197.729 240c-10.54 -75 32.7627 -144 120.763 -144s150.697 69 161.237 144c10.541 75 -32.7617 144 -120.762 144
s-150.697 -69 -161.238 -144zM214.384 636c5.34082 38 42.1191 72 86.1191 72s73.6436 -31 67.8809 -72c-5.76172 -41 -44.1191 -72 -88.1191 -72s-71.2207 34 -65.8809 72zM420.384 636c5.34082 38 42.1191 72 86.1191 72s73.6436 -31 67.8809 -72
c-5.76172 -41 -44.1191 -72 -88.1191 -72s-71.2207 34 -65.8809 72z" />
    <glyph glyph-name="ograve" unicode="&#xf2;" horiz-adv-x="610" 
d="M77.7295 240c21.2217 151 151.417 252 296.417 252s246.805 -101 225.583 -252s-151.416 -252 -296.416 -252s-246.806 101 -225.584 252zM197.729 240c-10.54 -75 32.7627 -144 120.763 -144s150.697 69 161.237 144c10.541 75 -32.7617 144 -120.762 144
s-150.697 -69 -161.238 -144zM352.503 708l78.7617 -144h-94l-120.762 144h136z" />
    <glyph glyph-name="otilde" unicode="&#xf5;" horiz-adv-x="610" 
d="M77.7295 240c21.2217 151 151.417 252 296.417 252s246.805 -101 225.583 -252s-151.416 -252 -296.416 -252s-246.806 101 -225.584 252zM197.729 240c-10.54 -75 32.7627 -144 120.763 -144s150.697 69 161.237 144c10.541 75 -32.7617 144 -120.762 144
s-150.697 -69 -161.238 -144zM266.827 568h-66c19.9951 64 54.8486 127 129.849 127c54 0 106.8 -37 138.8 -37c27 0 41.8115 20 51.9033 42h66c-19.9951 -64 -54.8486 -127 -129.849 -127c-54 0 -106.66 38 -138.66 38c-27 0 -41.9512 -21 -52.043 -43z" />
    <glyph glyph-name="scaron" unicode="&#x161;" horiz-adv-x="444" 
d="M462.887 419l-90.1191 -72c-18.5029 32 -46.1133 49 -87.1133 49c-32 0 -72.1084 -15 -77.168 -51c-12.0859 -86 256.752 -16 230.471 -203c-16.0215 -114 -130.644 -154 -228.644 -154c-74 0 -135.33 19 -176.6 74l90.54 75c26.2217 -34 54.708 -59 105.708 -59
c35 0 82.3896 17 87.7305 55c13.9131 99 -256.049 21 -230.33 204c15.0381 107 117.784 155 214.784 155c64 0 129.188 -20 160.74 -73zM140.503 708h114l56.3516 -90l81.6484 90h110l-135.238 -144h-133z" />
    <glyph glyph-name="uacute" unicode="&#xfa;" horiz-adv-x="574" 
d="M573.46 480l-67.46 -480h-114l10.8213 77h-2c-28.7451 -48 -79.5078 -89 -159.508 -89c-129 0 -162.211 91 -148.438 189l42.584 303h120l-34.1514 -243c-7.44922 -53 -15.8164 -141 68.1836 -141c79 0 118.151 58 127.146 122l36.8223 262h120zM319.265 564l119.238 144
h136l-161.238 -144h-94z" />
    <glyph glyph-name="ucircumflex" unicode="&#xfb;" horiz-adv-x="574" 
d="M573.46 480l-67.46 -480h-114l10.8213 77h-2c-28.7451 -48 -79.5078 -89 -159.508 -89c-129 0 -162.211 91 -148.438 189l42.584 303h120l-34.1514 -243c-7.44922 -53 -15.8164 -141 68.1836 -141c79 0 118.151 58 127.146 122l36.8223 262h120zM548.265 564h-114
l-56.3506 90l-81.6494 -90h-112l135.238 144h135z" />
    <glyph glyph-name="udieresis" unicode="&#xfc;" horiz-adv-x="574" 
d="M573.46 480l-67.46 -480h-114l10.8213 77h-2c-28.7451 -48 -79.5078 -89 -159.508 -89c-129 0 -162.211 91 -148.438 189l42.584 303h120l-34.1514 -243c-7.44922 -53 -15.8164 -141 68.1836 -141c79 0 118.151 58 127.146 122l36.8223 262h120zM196.384 636
c5.34082 38 42.1191 72 86.1191 72s73.6436 -31 67.8809 -72c-5.76172 -41 -44.1191 -72 -88.1191 -72s-71.2207 34 -65.8809 72zM402.384 636c5.34082 38 42.1191 72 86.1191 72s73.6436 -31 67.8809 -72c-5.76172 -41 -44.1191 -72 -88.1191 -72s-71.2207 34 -65.8809 72z
" />
    <glyph glyph-name="ugrave" unicode="&#xf9;" horiz-adv-x="574" 
d="M573.46 480l-67.46 -480h-114l10.8213 77h-2c-28.7451 -48 -79.5078 -89 -159.508 -89c-129 0 -162.211 91 -148.438 189l42.584 303h120l-34.1514 -243c-7.44922 -53 -15.8164 -141 68.1836 -141c79 0 118.151 58 127.146 122l36.8223 262h120zM334.503 708
l78.7617 -144h-94l-120.762 144h136z" />
    <glyph glyph-name="yacute" unicode="&#xfd;" horiz-adv-x="519" 
d="M207.438 -4l-136.978 484h132l87.1992 -333h2l166.801 333h125l-308.936 -583c-47.6484 -90 -96.2539 -137 -202.254 -137c-31 0 -61.4385 4 -90.3135 12l30.1777 108c18.0166 -7 38.3135 -12 59.3135 -12c59 0 77.9521 21 104.979 71zM292.265 564l119.238 144h136
l-161.238 -144h-94z" />
    <glyph glyph-name="ydieresis" unicode="&#xff;" horiz-adv-x="519" 
d="M207.438 -4l-136.978 484h132l87.1992 -333h2l166.801 333h125l-308.936 -583c-47.6484 -90 -96.2539 -137 -202.254 -137c-31 0 -61.4385 4 -90.3135 12l30.1777 108c18.0166 -7 38.3135 -12 59.3135 -12c59 0 77.9521 21 104.979 71zM169.384 636
c5.34082 38 42.1191 72 86.1191 72s73.6436 -31 67.8809 -72c-5.76172 -41 -44.1191 -72 -88.1191 -72s-71.2207 34 -65.8809 72zM375.384 636c5.34082 38 42.1191 72 86.1191 72s73.6436 -31 67.8809 -72c-5.76172 -41 -44.1191 -72 -88.1191 -72s-71.2207 34 -65.8809 72z
" />
    <glyph glyph-name="zcaron" unicode="&#x17e;" horiz-adv-x="482" 
d="M34 0l15.5996 111l295.087 271l0.28125 2h-245l13.4922 96h390l-15.3193 -109l-298.648 -275h272l-13.4922 -96h-414zM159.503 708h114l56.3516 -90l81.6484 90h110l-135.238 -144h-133z" />
  </font>
</defs>
</svg>
